<svg width="389" height="169" viewBox="0 0 389 169" fill="none" xmlns="http://www.w3.org/2000/svg">
<path fill-rule="evenodd" clip-rule="evenodd" d="M192.039 1.945C187.377 5.369 187.686 5.073 187.597 6.187C187.514 7.239 185.001 9.094 178.531 12.882C177.743 13.343 177.04 13.799 176.969 13.894C176.897 13.99 176.715 14.115 176.565 14.172C176.414 14.229 174.364 15.497 172.008 16.988C169.652 18.48 166.136 20.707 164.195 21.936C162.254 23.166 160.47 24.289 160.23 24.432C159.663 24.772 149.546 31.192 148.193 32.072C147.62 32.444 146.012 33.456 144.62 34.32C143.228 35.184 140.357 37.012 138.24 38.383C136.123 39.754 132.926 41.797 131.135 42.922C126.989 45.529 125.914 46.207 122.425 48.412C120.857 49.403 119.451 50.272 119.3 50.344C119.149 50.415 118.733 50.662 118.375 50.892C118.017 51.122 116.453 52.118 114.901 53.105C113.348 54.093 111.317 55.399 110.388 56.008C109.459 56.617 108.631 57.115 108.548 57.115C108.466 57.115 108.014 57.408 107.545 57.766C107.075 58.124 106.618 58.417 106.529 58.417C106.44 58.417 105.677 58.885 104.833 59.458C103.99 60.031 103.236 60.5 103.158 60.5C103.081 60.5 102.087 61.145 100.95 61.932C99.813 62.72 98.812 63.365 98.727 63.365C98.642 63.365 98.101 63.677 97.525 64.058L96.477 64.751L63.991 64.592L31.505 64.432L31.166 64.975C30.625 65.841 31.155 65.96 35.553 65.965C39.554 65.969 39.583 65.973 40.11 66.633C40.767 67.455 40.845 67.457 70.799 67.501C83.019 67.519 91.523 67.628 91.438 67.765C91.308 67.976 52.725 68.263 44.417 68.116C42.626 68.084 37.709 67.993 33.489 67.913L25.817 67.769L25.357 68.366C24.808 69.079 24.776 69.538 25.211 70.463L25.536 71.155L38.688 71.138C80.054 71.082 79.573 71.067 79.573 72.459C79.573 72.542 73.45 72.643 65.966 72.684C58.482 72.726 50.777 72.843 48.842 72.945C46.908 73.047 44.779 73.067 44.111 72.99L42.898 72.851L42.789 73.772C42.649 74.955 42.821 75.604 43.275 75.604C43.473 75.604 43.635 75.692 43.635 75.799C43.635 75.907 52.59 75.96 63.536 75.918L83.436 75.84L84.411 76.894C84.947 77.474 85.544 77.948 85.738 77.948C85.932 77.948 86.311 78.086 86.581 78.254C86.949 78.484 88.258 78.497 91.85 78.305C94.727 78.152 107.362 78.108 123.583 78.194C138.408 78.274 150.712 78.266 150.927 78.178C151.142 78.09 151.473 78.074 151.663 78.142C152.035 78.275 154.313 81.691 154.313 82.117C154.313 82.259 154.416 82.375 154.543 82.375C154.67 82.375 154.966 82.756 155.201 83.221C155.437 83.687 156.109 84.829 156.696 85.76C157.283 86.691 157.954 87.767 158.187 88.15C158.419 88.533 159.135 89.705 159.777 90.754C160.42 91.803 161.089 92.931 161.266 93.26C161.442 93.59 161.825 94.162 162.116 94.532C162.408 94.903 162.646 95.366 162.646 95.561C162.646 95.757 162.763 95.917 162.906 95.917C163.049 95.917 163.167 96.042 163.167 96.194C163.167 96.347 163.46 96.856 163.818 97.326C164.176 97.795 164.469 98.315 164.469 98.48C164.469 98.646 164.586 98.781 164.729 98.781C164.872 98.781 164.99 98.897 164.99 99.039C164.99 99.38 167.339 103.053 167.629 103.165C167.753 103.213 167.854 103.476 167.854 103.751C167.854 104.025 167.971 104.25 168.115 104.25C168.258 104.25 168.375 104.37 168.375 104.516C168.375 104.662 168.678 105.24 169.049 105.801C169.698 106.781 169.746 107.896 169.139 107.896C169.005 107.896 168.896 108.49 168.896 109.217C168.896 110.015 168.748 110.685 168.523 110.91C168.27 111.163 168.188 111.657 168.266 112.454C168.355 113.369 168.296 113.625 167.992 113.625C167.681 113.625 167.636 113.861 167.766 114.81C167.859 115.484 167.807 116.241 167.647 116.567C167.492 116.883 167.311 117.551 167.244 118.052C167.005 119.848 166.429 122.219 166.232 122.219C166.122 122.219 166.031 122.563 166.031 122.985C166.031 123.406 165.914 123.823 165.771 123.911C165.628 124 165.51 124.645 165.51 125.344C165.51 126.043 165.393 126.688 165.25 126.776C165.107 126.865 164.99 127.516 164.99 128.224C164.99 129.183 164.892 129.51 164.606 129.51C164.314 129.51 164.228 129.837 164.246 130.878C164.307 134.426 163.693 135.824 162.218 135.492C161.218 135.266 160.767 135.692 160.414 137.193C160.313 137.622 160.132 138.1 160.011 138.255C159.891 138.409 159.673 139.377 159.527 140.405C159.381 141.433 159.116 142.743 158.937 143.314L158.613 144.354H96.832H35.052L34.895 144.979C34.809 145.322 34.777 145.879 34.825 146.216L34.911 146.828L40.771 146.983C43.993 147.068 71.826 147.164 102.62 147.195C209.986 147.306 227.882 147.358 228.2 147.56C228.375 147.672 228.961 147.644 229.502 147.5C230.147 147.327 249.926 147.221 287.125 147.19C318.277 147.165 346.109 147.073 348.974 146.986L354.182 146.828L354.265 145.965C354.311 145.49 354.209 144.933 354.038 144.728C353.77 144.405 345.308 144.354 292.041 144.354H230.354V143.625C230.354 143.224 230.249 142.785 230.12 142.648C229.768 142.278 228.824 137.009 228.971 136.24C229.115 135.489 228.625 135.249 226.936 135.243C225.485 135.238 224.771 133.649 224.857 130.617C224.887 129.551 224.808 129.25 224.5 129.25C224.191 129.25 224.104 128.914 224.104 127.709C224.104 126.738 223.988 126.13 223.79 126.064C223.596 125.999 223.501 125.538 223.541 124.863C223.584 124.131 223.465 123.626 223.185 123.346C222.918 123.079 222.821 122.7 222.918 122.312C223.005 121.968 222.956 121.698 222.807 121.698C222.661 121.698 222.542 121.162 222.542 120.507C222.542 119.767 222.385 119.161 222.128 118.903C221.842 118.618 221.742 118.14 221.804 117.36C221.869 116.554 221.796 116.229 221.552 116.229C221.3 116.229 221.234 115.852 221.302 114.797C221.369 113.751 221.302 113.365 221.056 113.365C220.827 113.365 220.719 112.964 220.719 112.115C220.719 111.427 220.582 110.728 220.415 110.561C220.248 110.394 220.131 109.767 220.155 109.168C220.178 108.569 220.067 107.922 219.908 107.73C219.542 107.289 219.818 105.715 220.335 105.286C220.546 105.111 220.719 104.806 220.719 104.609C220.719 104.411 220.807 104.25 220.916 104.25C221.024 104.25 221.281 103.869 221.487 103.404C221.693 102.938 221.956 102.44 222.072 102.297C222.494 101.776 224.104 99.311 224.104 99.187C224.104 99.117 224.749 98.061 225.536 96.84C226.324 95.618 226.969 94.555 226.969 94.476C226.969 94.397 227.203 94.081 227.49 93.773C227.776 93.466 228.01 93.061 228.01 92.873C228.01 92.685 228.128 92.531 228.271 92.531C228.414 92.531 228.531 92.422 228.531 92.289C228.531 92.057 230.324 88.891 230.607 88.625C230.683 88.553 230.914 88.202 231.121 87.844C232.135 86.088 233.24 84.344 233.419 84.213C233.53 84.133 233.749 83.773 233.907 83.412C234.065 83.051 234.859 81.726 235.672 80.466L237.149 78.176L254.403 78.32C263.893 78.399 276.804 78.35 283.094 78.211C290.562 78.046 294.62 78.047 294.786 78.213C294.931 78.358 296.77 78.469 299.023 78.469C303.455 78.469 303.513 78.448 305.304 76.269C305.61 75.896 307.612 75.862 325.486 75.925C347.286 76.002 346.244 76.076 346.236 74.44C346.227 72.803 346.386 72.814 323.151 72.784C314.649 72.774 309.51 72.672 309.412 72.514C308.566 71.145 315.382 70.915 350.536 71.125L363.557 71.202L363.922 70.37C364.246 69.63 364.234 69.442 363.815 68.665L363.345 67.792H356.36H349.375L349.215 67.155C348.935 66.039 349.183 65.969 353.395 65.969C357.746 65.969 358.219 65.891 358.219 65.177C358.219 64.36 357.492 64.334 340.004 64.54C330.615 64.65 316.089 64.73 307.725 64.717L292.517 64.695L290.667 63.543C289.65 62.91 287.704 61.677 286.344 60.804C284.155 59.398 282.052 58.092 280.578 57.222C280.314 57.066 279.882 56.743 279.619 56.506C279.356 56.268 279.051 56.073 278.941 56.073C278.831 56.073 277.753 55.428 276.544 54.641C275.335 53.853 274.306 53.208 274.257 53.208C274.111 53.208 271.433 51.564 270.546 50.93C270.096 50.607 269.646 50.344 269.548 50.344C269.449 50.344 269.057 50.106 268.677 49.816C267.364 48.817 264.335 46.859 262.867 46.064C262.058 45.625 260.359 44.563 259.091 43.703C257.824 42.844 256.352 41.92 255.822 41.65C255.291 41.381 254.623 40.941 254.335 40.674C254.048 40.406 253.754 40.188 253.681 40.188C253.553 40.188 251.633 38.968 246.44 35.587C245.046 34.68 243.846 33.938 243.773 33.938C243.7 33.937 242.287 33.059 240.632 31.984C238.978 30.91 237.565 30.031 237.494 30.031C237.423 30.031 237.047 29.807 236.659 29.533C236.271 29.259 235.436 28.703 234.805 28.296C234.173 27.89 233.395 27.382 233.075 27.167C232.755 26.952 231.749 26.311 230.838 25.742C229.927 25.174 227.659 23.74 225.797 22.557C223.935 21.374 220.971 19.495 219.211 18.382C217.45 17.27 214.989 15.705 213.742 14.905C211.112 13.218 206.221 10.113 204.86 9.266C204.344 8.945 203.688 8.568 203.401 8.428C202.162 7.821 201.477 6.993 201.502 6.134C201.516 5.667 201.48 5.244 201.423 5.195C201.365 5.145 200.263 4.327 198.974 3.376C197.685 2.425 196.513 1.555 196.37 1.442C194.585 0.0349998 194.648 0.0279981 192.039 1.945ZM197.971 3.247C200.846 5.311 200.927 5.397 200.927 6.357C200.927 6.9 201.061 7.427 201.225 7.528C201.416 7.647 201.291 7.833 200.873 8.052C199.273 8.891 198.747 12.922 199.705 17.01C200.76 21.515 200.966 22.442 201.177 23.651C201.303 24.367 201.535 25.48 201.693 26.125C202.318 28.672 202.49 29.545 202.49 30.182C202.49 30.548 202.601 31.056 202.738 31.311C202.875 31.566 203.11 32.466 203.261 33.312C203.413 34.157 203.721 35.611 203.947 36.542C204.173 37.473 204.452 38.762 204.568 39.406C204.792 40.656 205.352 43.335 206.011 46.307C206.233 47.31 206.528 48.658 206.666 49.302C206.803 49.947 207.095 51.236 207.314 52.167C207.532 53.098 207.82 54.445 207.953 55.161C208.086 55.878 208.377 57.284 208.6 58.286C208.823 59.289 209.115 60.695 209.25 61.411C209.514 62.814 209.822 63.894 210.25 64.927C210.808 66.271 210.894 66.642 210.839 67.466C210.795 68.133 210.884 68.312 211.259 68.312C211.52 68.311 230.519 68.315 253.479 68.32C276.438 68.324 295.334 68.259 295.471 68.175C296.011 67.841 295.654 67.527 294.277 67.127C293.484 66.896 292.632 66.49 292.385 66.225C292.138 65.959 291.615 65.62 291.223 65.471C290.831 65.322 290.51 65.022 290.51 64.803C290.51 64.309 290.782 64.305 291.869 64.781C292.339 64.987 293.046 65.224 293.44 65.307C293.834 65.39 294.156 65.618 294.156 65.815C294.156 66.017 294.556 66.246 295.079 66.344C295.701 66.461 296.075 66.708 296.224 67.1C296.346 67.421 296.604 67.813 296.798 67.971C297.257 68.346 314.432 68.587 341.938 68.605C363.017 68.619 363.688 68.65 363.688 69.596C363.688 70.398 363.751 70.396 336.748 70.396H310.633L309.881 70.972C306.591 73.498 305.746 73.372 326.944 73.521C343.921 73.64 345.556 73.689 345.806 74.085C346.611 75.362 346.91 75.344 325.46 75.344H305.525L304.402 76.516L303.28 77.688H270.061H236.842L235.877 79.28C235.346 80.156 234.238 81.917 233.414 83.194C232.59 84.47 231.917 85.566 231.917 85.63C231.917 85.748 228.491 91.327 226.159 95.005C225.433 96.151 223.553 99.182 221.982 101.74L219.126 106.391L219.295 107.859C219.387 108.667 219.621 109.914 219.813 110.63C220.006 111.346 220.358 112.87 220.595 114.016C220.833 115.161 221.133 116.523 221.263 117.041C221.394 117.559 221.5 118.185 221.5 118.434C221.5 118.682 221.666 119.254 221.868 119.705C222.071 120.157 222.302 121.112 222.383 121.828C222.545 123.28 222.749 124.336 223.567 127.948C224.32 131.273 224.646 132.814 224.871 134.119C225.125 135.595 225.548 136.045 226.614 135.973C227.964 135.882 228.071 136.126 229.324 142.141C229.503 143 229.811 143.967 230.007 144.289L230.365 144.874L292.144 144.94L353.922 145.005V145.656V146.307L285.042 146.461C216.103 146.614 35.996 146.489 35.349 146.287C35.16 146.228 35.043 145.915 35.089 145.592L35.172 145.005L96.95 144.94L158.728 144.874L159.091 144.289C159.29 143.967 159.6 142.941 159.78 142.01C160.154 140.076 161.047 136.551 161.243 136.234C161.315 136.117 161.948 136.021 162.649 136.021C163.921 136.021 163.925 136.019 164.08 135.044C164.247 133.995 164.464 132.959 165.078 130.292C165.292 129.361 165.657 127.661 165.889 126.516C166.121 125.37 166.424 124.072 166.562 123.633C166.7 123.193 166.813 122.526 166.813 122.152C166.813 121.778 166.939 121.142 167.094 120.738C167.249 120.335 167.482 119.419 167.612 118.703C167.742 117.987 168.038 116.522 168.271 115.448C168.504 114.374 168.789 112.909 168.904 112.193C169.114 110.893 169.493 109.307 169.98 107.693C170.187 107.006 170.144 106.689 169.762 106.073C169.5 105.652 168.538 104.103 167.623 102.63C166.709 101.158 165.098 98.547 164.044 96.828C162.99 95.109 159.923 90.129 157.228 85.76L152.327 77.818L119.009 77.688L85.691 77.557L84.911 76.749C83.493 75.282 84.434 75.344 63.346 75.344C42.208 75.344 42.483 75.361 43.288 74.085C43.538 73.689 45.173 73.64 62.15 73.521C82.93 73.375 81.811 73.499 79.828 71.563L78.767 70.526L52.152 70.392C37.513 70.318 25.507 70.23 25.471 70.196C25.269 70.007 25.457 69.115 25.752 68.871C25.997 68.667 32.399 68.584 47.822 68.582C88.252 68.579 92.533 68.432 92.976 67.035C93.068 66.747 93.471 66.453 93.906 66.357C94.328 66.264 94.763 66.032 94.871 65.842C95.083 65.467 98.298 64.295 98.516 64.512C98.792 64.789 98.317 65.448 97.842 65.448C97.114 65.448 96.546 66.194 97.038 66.505C97.309 66.677 97.193 66.743 96.611 66.746C95.638 66.751 93.375 67.493 93.375 67.807C93.375 68.393 96.892 68.435 136.214 68.313L178.141 68.182L178.16 67.401C178.17 66.971 178.329 66.268 178.512 65.839C179.251 64.104 179.629 62.905 179.865 61.542C180.36 58.696 180.547 57.746 180.842 56.594C181.007 55.949 181.384 54.25 181.679 52.818C181.975 51.385 182.396 49.452 182.615 48.521C182.834 47.59 183.065 46.477 183.127 46.047C183.189 45.617 183.346 44.855 183.476 44.354C183.606 43.853 183.903 42.505 184.136 41.359C184.369 40.214 184.662 38.807 184.786 38.234C184.909 37.661 185.201 36.255 185.434 35.109C185.667 33.964 186.017 32.382 186.212 31.594C186.407 30.806 186.701 29.458 186.864 28.599C187.028 27.74 187.317 26.333 187.507 25.474C187.696 24.615 187.974 23.326 188.124 22.609C189.097 17.961 189.31 17.002 189.631 15.798C190.405 12.901 189.656 8.819 188.206 8.031C187.826 7.825 187.662 7.652 187.841 7.646C188.049 7.639 188.167 7.233 188.167 6.519C188.167 5.335 188.778 4.711 191.943 2.668C192.516 2.298 193.145 1.799 193.342 1.56C194.021 0.734 194.933 1.066 197.971 3.247ZM192.268 4.773C190.536 6.051 189.866 7.467 190.737 8.005C190.861 8.082 191.034 8.587 191.121 9.127C191.431 11.056 191.788 11.281 194.53 11.281C197.307 11.281 197.237 11.328 198.026 8.952C198.864 6.428 198.827 6.297 196.826 4.794C194.658 3.166 194.449 3.165 192.268 4.773ZM196.638 5.477C197.64 6.219 198.214 6.811 198.089 6.974C197.975 7.123 197.608 8.036 197.273 9.003L196.664 10.76H194.499C192.573 10.76 192.333 10.708 192.333 10.283C192.333 10.02 192.247 9.719 192.142 9.614C191.099 8.571 191.544 5.292 192.729 5.292C192.897 5.292 193.246 5.057 193.505 4.771C194.211 3.991 194.813 4.126 196.638 5.477ZM189.049 10.632C189.588 12.513 189.528 14.187 188.82 17.01C188.586 17.941 188.329 19.321 188.248 20.075C188.168 20.83 187.999 21.51 187.874 21.588C187.748 21.665 187.646 22.145 187.646 22.655C187.646 23.164 187.478 24.124 187.272 24.788C187.066 25.452 186.707 26.932 186.474 28.078C186.24 29.224 185.928 30.553 185.78 31.033C185.487 31.98 185.088 34.166 184.869 36.021C184.793 36.665 184.625 37.304 184.496 37.44C184.366 37.576 184.26 37.979 184.26 38.334C184.26 38.69 184.096 39.634 183.896 40.431C183.491 42.038 182.904 44.704 182.43 47.089C182.259 47.948 181.956 49.255 181.757 49.993C181.558 50.731 181.396 51.75 181.396 52.256C181.396 52.763 181.279 53.25 181.135 53.339C180.992 53.427 180.875 53.863 180.875 54.308C180.875 54.752 180.707 55.712 180.502 56.441C180.296 57.169 179.932 58.703 179.693 59.849C179.454 60.995 179.115 62.518 178.939 63.234L178.619 64.536L139.331 64.602C117.723 64.639 99.946 64.571 99.827 64.452C99.708 64.333 100.171 63.919 100.855 63.532C101.539 63.145 102.802 62.381 103.661 61.834C104.521 61.287 107.451 59.439 110.172 57.726C112.893 56.014 116.217 53.916 117.558 53.064C122.363 50.013 127.41 46.824 127.84 46.568C128.08 46.424 130.941 44.62 134.198 42.558C143.609 36.599 145.536 35.387 146.032 35.109C146.288 34.966 147.69 34.087 149.147 33.156C150.605 32.225 152.185 31.229 152.66 30.943C153.876 30.209 159.189 26.848 163.948 23.801C166.168 22.38 169.391 20.348 171.109 19.286C172.828 18.224 177.322 15.41 181.096 13.034C188.753 8.21099 188.387 8.322 189.049 10.632ZM204.535 10.826C206.388 12.007 209.111 13.736 210.586 14.667C212.061 15.598 214.128 16.916 215.178 17.596C216.229 18.277 217.147 18.833 217.219 18.833C217.29 18.833 218.546 19.613 220.01 20.567C221.474 21.52 223.844 23.021 225.276 23.903C226.708 24.785 228.935 26.176 230.224 26.994C232.162 28.224 237.091 31.308 239.104 32.55C239.376 32.718 241.23 33.89 243.224 35.154C245.218 36.419 247.328 37.731 247.912 38.07C248.496 38.409 249.267 38.893 249.625 39.145C250.657 39.873 258.519 44.875 258.629 44.875C258.851 44.875 261.74 46.8 261.821 47.002C261.869 47.121 262.011 47.219 262.138 47.219C262.373 47.219 266.086 49.532 268.027 50.888C268.623 51.305 269.179 51.646 269.263 51.646C269.346 51.646 271.847 53.203 274.819 55.106C277.792 57.01 282.289 59.851 284.814 61.421C287.339 62.991 289.353 64.364 289.291 64.471C289.229 64.579 271.498 64.667 249.889 64.667H210.599L210.231 63.299C210.028 62.548 209.662 60.995 209.419 59.849C209.175 58.703 208.805 57.223 208.597 56.559C208.389 55.895 208.219 54.935 208.219 54.426C208.219 53.916 208.102 53.427 207.958 53.339C207.815 53.25 207.698 52.723 207.698 52.168C207.698 51.613 207.571 50.829 207.416 50.426C207.261 50.023 207.03 49.107 206.903 48.391C206.776 47.674 206.488 46.268 206.263 45.266C206.038 44.263 205.731 42.798 205.58 42.01C205.429 41.223 205.212 40.461 205.098 40.318C204.983 40.174 204.825 39.53 204.746 38.885C204.566 37.402 204.206 35.445 203.839 33.938C203.681 33.293 203.42 32.063 203.258 31.203C202.924 29.428 202.372 26.951 201.823 24.762C201.617 23.94 201.448 22.922 201.448 22.498C201.448 22.075 201.331 21.656 201.188 21.568C201.044 21.479 200.928 21.091 200.929 20.706C200.931 20.027 200.343 17.192 199.861 15.56C199.484 14.284 199.586 11.225 200.024 10.646C200.234 10.368 200.406 9.889 200.406 9.582C200.406 8.257 200.595 8.314 204.535 10.826ZM203.347 9.003C203.733 9.182 204.049 9.416 204.05 9.523C204.053 9.817 203.884 9.767 202.952 9.199C202.004 8.621 202.257 8.496 203.347 9.003ZM183.386 10.891C183.171 11.105 182.848 11.281 182.667 11.281C182.482 11.281 182.56 11.114 182.843 10.899C183.507 10.397 183.885 10.391 183.386 10.891ZM207.084 11.411C207.323 11.65 207.359 11.802 207.177 11.802C207.013 11.802 206.704 11.626 206.489 11.411C206.25 11.173 206.214 11.021 206.396 11.021C206.56 11.021 206.869 11.197 207.084 11.411ZM178.699 13.755C178.484 13.97 178.16 14.146 177.979 14.146C177.795 14.146 177.872 13.978 178.156 13.763C178.819 13.262 179.198 13.256 178.699 13.755ZM210.823 13.755C211.2 13.971 211.31 14.128 211.083 14.128C210.868 14.129 210.465 13.957 210.187 13.747C209.544 13.26 209.967 13.266 210.823 13.755ZM192.763 14.275C192.276 14.762 191.386 17.102 191.17 18.464C191.081 19.025 190.907 19.895 190.784 20.396C190.661 20.897 190.363 22.245 190.122 23.391C189.882 24.536 189.567 25.943 189.424 26.516C189.28 27.089 189.064 28.085 188.942 28.729C188.821 29.374 188.534 30.78 188.305 31.854C188.076 32.928 187.784 34.335 187.656 34.979C187.528 35.624 187.293 36.737 187.134 37.453C186.642 39.665 186.405 40.761 185.95 42.922C185.71 44.068 185.413 45.415 185.291 45.917C185.169 46.418 184.878 47.766 184.645 48.911C184.412 50.057 184.118 51.464 183.992 52.036C183.865 52.609 183.572 54.016 183.339 55.161C183.106 56.307 182.758 57.889 182.565 58.677C182.372 59.465 182.086 60.754 181.93 61.542C181.774 62.329 181.522 63.501 181.369 64.146C181.086 65.344 180.857 66.486 180.357 69.2C180.201 70.046 180.009 70.844 179.929 70.973C179.849 71.101 179.69 71.815 179.575 72.559C179.46 73.303 179.17 74.732 178.931 75.734C178.51 77.501 177.979 79.964 177.499 82.375C177.37 83.02 177.082 84.367 176.859 85.37C176.635 86.372 176.34 87.81 176.203 88.564C176.065 89.318 175.878 90.057 175.785 90.206C175.693 90.355 175.517 91.086 175.394 91.83C175.271 92.574 174.983 94.061 174.754 95.135C174.524 96.21 174.251 97.616 174.145 98.262C174.04 98.907 173.876 99.56 173.782 99.713C173.687 99.866 173.488 100.686 173.339 101.535C173.191 102.384 172.891 103.84 172.672 104.771C172.454 105.702 172.161 107.049 172.02 107.766C171.88 108.482 171.582 109.888 171.359 110.891C171.135 111.893 170.856 113.241 170.738 113.885C170.537 114.989 170.157 116.702 169.237 120.656C169.02 121.587 168.743 122.935 168.62 123.651C168.498 124.367 168.204 125.773 167.968 126.776C167.731 127.779 167.44 129.126 167.319 129.771C167.073 131.089 166.405 134.233 166.15 135.274C165.94 136.133 166.036 136.187 168.156 136.413C170.4 136.652 170.167 137.068 171.5 130.422C171.615 129.849 171.888 128.618 172.107 127.688C173.037 123.734 173.357 122.268 173.583 120.917C173.715 120.129 174.01 118.664 174.237 117.661C174.465 116.659 174.755 115.311 174.883 114.667C175.01 114.022 175.486 111.854 175.939 109.849C176.393 107.844 176.854 105.676 176.964 105.031C177.074 104.387 177.369 102.98 177.62 101.906C177.871 100.832 178.154 99.425 178.249 98.78C178.344 98.135 178.499 97.482 178.593 97.329C178.688 97.176 178.887 96.356 179.036 95.507C179.184 94.658 179.486 93.202 179.706 92.271C179.927 91.34 180.209 89.992 180.334 89.276C180.459 88.56 180.754 87.154 180.99 86.151C181.226 85.148 181.525 83.742 181.655 83.026C181.785 82.31 182.25 80.142 182.688 78.208C183.126 76.275 183.601 74.107 183.744 73.391C183.887 72.674 184.187 71.268 184.411 70.266C184.634 69.263 184.913 67.915 185.03 67.271C185.147 66.626 185.623 64.458 186.088 62.453C186.553 60.448 187.022 58.28 187.132 57.635C187.241 56.991 187.52 55.585 187.752 54.51C187.984 53.436 188.283 51.94 188.417 51.186C188.552 50.432 188.728 49.708 188.809 49.576C188.891 49.445 189.062 48.831 189.19 48.213C189.318 47.594 189.623 46.151 189.868 45.005C190.113 43.859 190.404 42.395 190.514 41.75C190.625 41.105 190.905 39.758 191.137 38.755C191.37 37.753 191.745 36.053 191.972 34.979C192.199 33.905 192.487 32.557 192.613 31.984C193.176 29.409 193.68 26.973 193.797 26.255C194.066 24.601 194.178 24.302 194.524 24.302C194.972 24.302 195.198 24.872 195.198 26.004C195.198 26.487 195.304 27.151 195.433 27.48C195.563 27.809 195.87 29.074 196.116 30.292C196.362 31.509 196.713 33.15 196.897 33.938C197.23 35.367 197.392 36.127 198.2 40.057C198.435 41.203 198.725 42.551 198.844 43.052C198.962 43.553 199.253 44.901 199.489 46.047C199.927 48.172 200.554 51.051 200.935 52.688C201.539 55.284 201.763 56.308 201.96 57.375C202.39 59.702 202.762 61.451 203.287 63.625C203.58 64.842 203.916 66.366 204.031 67.01C204.147 67.655 204.482 69.296 204.777 70.656C205.071 72.017 205.384 73.482 205.472 73.911C205.733 75.174 206.347 77.939 206.803 79.901C207.036 80.904 207.331 82.251 207.459 82.896C207.587 83.54 207.875 84.888 208.099 85.891C208.323 86.893 208.604 88.241 208.723 88.885C208.986 90.312 209.322 91.886 210.058 95.135C210.366 96.496 210.709 98.078 210.821 98.651C211 99.569 211.229 100.658 212.139 104.901C212.262 105.474 212.479 106.529 212.621 107.245C212.899 108.643 213.463 111.208 213.911 113.104C214.063 113.749 214.323 114.979 214.489 115.839C214.656 116.698 214.944 118.046 215.13 118.833C215.316 119.621 215.609 120.969 215.781 121.828C215.953 122.688 216.245 124.035 216.431 124.823C216.962 127.078 217.381 129.02 217.613 130.292C217.799 131.312 218.138 132.836 218.79 135.586C219.016 136.541 219.319 136.635 221.295 136.369C223.211 136.111 223.21 136.115 222.424 132.505C221.961 130.384 221.79 129.548 221.251 126.776C221.083 125.917 220.844 124.862 220.719 124.432C220.594 124.003 220.298 122.714 220.061 121.568C219.823 120.422 219.513 119.028 219.371 118.471C219.229 117.913 219 116.859 218.861 116.127C218.402 113.707 218.146 112.473 217.723 110.63C217.492 109.628 217.203 108.267 217.079 107.607C216.956 106.947 216.736 105.951 216.59 105.394C216.445 104.836 216.135 103.443 215.903 102.297C215.67 101.151 215.374 99.745 215.246 99.172C214.684 96.665 214.248 94.635 213.96 93.182C213.79 92.323 213.532 91.164 213.387 90.606C213.242 90.049 213.027 89.053 212.91 88.393C212.792 87.733 212.505 86.372 212.272 85.37C212.04 84.367 211.735 82.961 211.594 82.245C211.454 81.529 211.176 80.181 210.976 79.25C210.776 78.319 210.488 76.971 210.336 76.255C210.185 75.539 209.877 74.133 209.652 73.13C208.79 69.28 208.434 67.621 208.227 66.49C208.11 65.845 207.817 64.439 207.578 63.365C207.338 62.29 207.042 60.826 206.92 60.109C206.798 59.393 206.584 58.456 206.446 58.026C206.307 57.596 205.994 56.307 205.75 55.161C205.506 54.016 205.2 52.654 205.07 52.136C204.94 51.619 204.833 50.9 204.833 50.541C204.833 50.181 204.658 49.466 204.443 48.952C204.228 48.437 204.052 47.699 204.052 47.311C204.052 46.922 203.944 46.245 203.813 45.805C203.681 45.365 203.376 44.068 203.134 42.922C202.083 37.941 201.907 37.15 201.684 36.393C201.554 35.953 201.448 35.319 201.448 34.984C201.448 34.648 201.281 33.778 201.076 33.049C200.738 31.842 199.988 28.399 198.943 23.26C198.725 22.186 198.437 20.947 198.304 20.508C198.171 20.068 198.063 19.448 198.063 19.131C198.063 17.896 196.692 14.367 196.133 14.162C195.132 13.795 193.177 13.86 192.763 14.275ZM177.424 14.615C177.174 14.664 176.969 14.813 176.969 14.946C176.969 15.079 176.857 15.188 176.72 15.188C176.481 15.188 174.831 16.2 174.18 16.746C174.007 16.892 173.723 17.01 173.548 17.01C173.134 17.01 175.175 15.465 175.602 15.455C175.781 15.451 175.927 15.331 175.927 15.188C175.927 15.044 176.053 14.927 176.206 14.927C176.36 14.927 176.662 14.75 176.878 14.534C177.094 14.318 177.408 14.227 177.576 14.333C177.782 14.463 177.734 14.553 177.424 14.615ZM213.167 15.143C213.167 15.263 213.489 15.524 213.883 15.724C214.277 15.924 214.962 16.354 215.405 16.68C215.848 17.005 216.366 17.271 216.555 17.271C216.744 17.271 216.821 17.349 216.725 17.445C216.562 17.608 215.276 17.072 214.99 16.722C214.918 16.634 214.463 16.341 213.979 16.07C213.495 15.8 212.85 15.433 212.547 15.256L211.995 14.935L212.581 14.931C212.903 14.929 213.167 15.024 213.167 15.143ZM196.174 16.226C196.617 16.228 196.76 16.381 196.76 16.848C196.76 17.189 196.936 17.888 197.151 18.403C197.366 18.917 197.542 19.663 197.543 20.062C197.544 20.46 197.72 21.122 197.934 21.532C198.148 21.943 198.323 22.844 198.323 23.535C198.323 24.227 198.428 24.857 198.556 24.936C198.684 25.015 198.852 25.52 198.93 26.058C199.29 28.55 199.691 30.443 199.908 30.669C200.039 30.805 200.146 31.239 200.146 31.633C200.146 32.027 200.332 33.029 200.56 33.86C200.788 34.69 201.027 35.767 201.091 36.252C201.155 36.737 201.329 37.361 201.477 37.637C201.625 37.913 201.712 38.599 201.672 39.161C201.631 39.722 201.74 40.323 201.914 40.497C202.087 40.671 202.229 41.293 202.229 41.88C202.229 42.467 202.34 43.059 202.474 43.195C202.609 43.331 202.854 44.204 203.018 45.135C203.626 48.59 203.753 49.188 204.03 49.905C204.185 50.308 204.313 51.011 204.314 51.467C204.315 51.924 204.491 52.633 204.705 53.043C204.919 53.453 205.094 54.279 205.094 54.879C205.094 55.478 205.2 56.08 205.329 56.216C205.458 56.352 205.629 56.991 205.707 57.635C206.068 60.585 206.317 61.827 206.605 62.115C206.776 62.287 206.917 62.917 206.917 63.515C206.917 64.113 207.092 65.024 207.307 65.538C207.522 66.052 207.702 66.857 207.707 67.328C207.712 67.798 207.884 68.475 208.089 68.833C208.293 69.191 208.465 70.034 208.47 70.706C208.475 71.378 208.596 72 208.74 72.089C208.883 72.177 209 72.587 209 72.998C209 73.41 209.127 74.077 209.283 74.48C209.595 75.291 209.966 77.062 210.282 79.25C210.396 80.038 210.614 81.034 210.767 81.464C210.92 81.893 211.119 82.799 211.209 83.476C211.3 84.153 211.484 84.775 211.619 84.858C211.754 84.942 211.865 85.582 211.865 86.281C211.865 86.98 211.982 87.625 212.125 87.714C212.268 87.802 212.385 88.27 212.385 88.754C212.385 89.237 212.52 89.963 212.685 90.366C212.851 90.769 213.08 91.685 213.196 92.401C213.543 94.545 213.888 96.186 214.485 98.521C214.796 99.738 215.106 101.32 215.174 102.036C215.242 102.753 215.404 103.45 215.534 103.586C215.664 103.722 215.771 104.224 215.771 104.701C215.771 105.178 215.95 105.998 216.17 106.523C216.389 107.048 216.507 107.637 216.433 107.832C216.358 108.026 216.471 108.603 216.685 109.114C216.898 109.625 217.073 110.34 217.073 110.704C217.073 111.341 217.47 112.937 218.26 115.483C218.467 116.147 218.635 117.207 218.635 117.84C218.635 118.472 218.741 119.101 218.871 119.237C219 119.373 219.167 120.012 219.243 120.656C219.389 121.907 219.997 124.696 220.264 125.344C220.353 125.559 220.477 126.203 220.539 126.776C220.642 127.715 221.096 129.54 221.774 131.742C221.91 132.182 222.021 133.025 222.021 133.615C222.021 134.205 222.138 134.76 222.281 134.849C223.076 135.34 222.486 135.76 221.001 135.76H219.461L219.022 133.742C218.781 132.632 218.419 131.339 218.219 130.869C218.018 130.398 217.854 129.497 217.854 128.866C217.854 128.235 217.737 127.646 217.594 127.557C217.451 127.469 217.333 126.824 217.333 126.125C217.333 125.426 217.216 124.781 217.073 124.693C216.93 124.604 216.813 124.058 216.813 123.48C216.813 122.901 216.645 122.058 216.441 121.607C216.236 121.156 216.005 120.318 215.928 119.745C215.85 119.172 215.691 117.972 215.574 117.079C215.457 116.186 215.219 115.313 215.045 115.139C214.871 114.965 214.729 114.275 214.729 113.605C214.729 112.84 214.584 112.266 214.339 112.063C214.081 111.849 213.948 111.267 213.948 110.353C213.948 109.592 213.831 108.896 213.688 108.807C213.544 108.719 213.427 108.177 213.427 107.603C213.427 107.029 213.292 106.307 213.127 105.999C212.857 105.494 212.574 104.212 211.851 100.215C211.721 99.5 211.496 98.875 211.349 98.827C211.203 98.778 211.083 98.11 211.083 97.343C211.083 96.575 210.966 95.875 210.823 95.786C210.68 95.698 210.563 95.215 210.563 94.712C210.563 94.21 210.433 93.557 210.275 93.262C210.006 92.76 209.836 91.937 209.264 88.365C208.835 85.687 208.274 83.367 207.985 83.079C207.827 82.921 207.698 82.236 207.698 81.557C207.698 80.878 207.581 80.25 207.438 80.161C207.294 80.073 207.177 79.37 207.177 78.599C207.177 77.828 207.06 77.125 206.917 77.036C206.773 76.948 206.656 76.465 206.656 75.962C206.656 75.46 206.521 74.797 206.356 74.489C206.191 74.18 205.971 73.221 205.866 72.357C205.762 71.493 205.416 69.966 205.097 68.964C204.779 67.961 204.461 66.613 204.39 65.969C204.32 65.324 204.156 64.686 204.027 64.549C203.897 64.413 203.792 63.738 203.792 63.049C203.792 62.359 203.688 61.592 203.56 61.343C203.341 60.914 202.888 58.91 202.221 55.422C201.607 52.213 201.39 51.385 201.162 51.385C201.033 51.385 200.927 50.806 200.927 50.099C200.927 49.391 200.81 48.74 200.667 48.651C200.523 48.563 200.406 47.962 200.406 47.316C200.406 46.671 200.289 45.924 200.146 45.656C200.002 45.388 199.823 44.675 199.747 44.073C199.671 43.47 199.529 42.848 199.43 42.689C199.331 42.531 199.166 41.815 199.062 41.099C198.757 38.977 198.172 36.452 197.846 35.842C197.679 35.53 197.542 34.804 197.542 34.23C197.542 33.657 197.424 33.115 197.281 33.026C197.138 32.938 197.021 32.411 197.021 31.856C197.021 31.301 196.894 30.517 196.738 30.113C196.582 29.71 196.454 28.971 196.452 28.471C196.45 27.97 196.284 27.244 196.083 26.856C195.883 26.468 195.719 25.669 195.719 25.079C195.719 23.761 195.339 23 194.683 23C193.975 23 193.375 23.99 193.375 25.158C193.375 25.709 193.234 26.415 193.062 26.728C192.773 27.256 192.59 28.214 192.169 31.404C192.079 32.087 191.904 32.709 191.779 32.786C191.654 32.864 191.552 33.374 191.552 33.921C191.552 34.468 191.381 35.326 191.171 35.828C190.961 36.329 190.742 37.134 190.684 37.617C190.504 39.098 189.943 41.819 189.566 43.033C189.369 43.668 189.208 44.51 189.208 44.906C189.208 45.302 189.091 45.698 188.948 45.786C188.805 45.875 188.688 46.52 188.688 47.219C188.688 47.918 188.57 48.563 188.427 48.651C188.284 48.74 188.167 49.314 188.167 49.928C188.167 50.543 187.986 51.407 187.765 51.85C187.39 52.603 187.061 54.054 186.633 56.855C186.534 57.5 186.356 58.186 186.237 58.379C186.023 58.726 185.66 60.779 185.391 63.169C185.314 63.85 185.146 64.406 185.017 64.406C184.887 64.406 184.781 65.027 184.781 65.786C184.781 66.546 184.661 67.287 184.514 67.434C184.366 67.582 184.125 68.451 183.978 69.366C183.831 70.28 183.612 71.15 183.491 71.298C183.371 71.447 183.214 72.154 183.143 72.87C182.985 74.468 182.503 76.62 182.167 77.228C182.029 77.477 181.917 78.245 181.917 78.934C181.917 79.623 181.798 80.307 181.652 80.452C181.506 80.598 181.337 81.227 181.275 81.851C181.213 82.474 181.044 83.287 180.899 83.656C180.659 84.273 180.393 85.507 179.829 88.625C179.713 89.27 179.49 90.127 179.335 90.53C179.179 90.933 179.052 91.717 179.052 92.272C179.052 92.828 178.935 93.354 178.792 93.443C178.648 93.531 178.528 94.153 178.523 94.825C178.518 95.497 178.343 96.274 178.132 96.552C177.922 96.83 177.75 97.424 177.75 97.872C177.75 98.32 177.589 99.265 177.392 99.971C177.194 100.677 176.882 102.134 176.697 103.208C176.513 104.283 176.246 105.454 176.105 105.813C175.842 106.478 175.488 108.41 175.246 110.5C175.171 111.145 174.942 112.041 174.737 112.492C174.532 112.944 174.365 113.53 174.365 113.795C174.366 114.378 173.69 117.446 173.177 119.185C172.972 119.88 172.863 120.544 172.935 120.661C173.007 120.778 172.937 121.205 172.779 121.611C172.48 122.379 172.089 124.371 171.844 126.385C171.765 127.03 171.583 127.631 171.44 127.722C171.296 127.812 171.101 128.632 171.006 129.545C170.911 130.457 170.742 131.349 170.632 131.527C170.521 131.705 170.314 132.572 170.172 133.454C169.79 135.826 169.717 135.906 168.014 135.802C166.693 135.721 166.583 135.668 166.816 135.233C166.957 134.969 167.073 134.396 167.073 133.96C167.073 133.524 167.245 132.725 167.456 132.185C167.791 131.326 168.114 129.803 168.548 127.036C168.616 126.607 168.774 126.021 168.901 125.734C169.028 125.448 169.181 124.628 169.243 123.911C169.304 123.195 169.553 121.848 169.796 120.917C170.039 119.986 170.3 118.697 170.376 118.052C170.452 117.408 170.613 116.757 170.735 116.607C170.856 116.457 171.067 115.696 171.203 114.915C171.679 112.178 172.081 110.366 172.31 109.918C172.438 109.669 172.542 108.96 172.542 108.342C172.542 107.724 172.684 107.076 172.858 106.902C173.032 106.728 173.261 105.914 173.367 105.093C173.661 102.816 174.482 98.811 175.045 96.909C175.244 96.238 175.406 95.337 175.406 94.907C175.406 94.476 175.523 94.052 175.667 93.964C175.81 93.875 175.927 93.407 175.927 92.923C175.927 92.44 176.056 91.714 176.213 91.311C176.522 90.516 176.928 88.406 177.13 86.542C177.199 85.897 177.365 85.135 177.499 84.849C177.807 84.187 178.677 80.345 179.268 77.036C179.396 76.32 179.646 75.148 179.823 74.432C180.457 71.879 180.582 71.283 180.889 69.354C181.06 68.28 181.375 66.815 181.589 66.099C181.972 64.82 182.251 63.474 182.668 60.891C182.784 60.174 183.014 59.259 183.179 58.855C183.344 58.452 183.479 57.727 183.479 57.243C183.479 56.76 183.596 56.292 183.74 56.203C183.883 56.115 184 55.476 184 54.783C184 53.905 184.118 53.479 184.391 53.375C184.665 53.269 184.781 52.841 184.781 51.931C184.781 51.22 184.916 50.308 185.081 49.905C185.369 49.203 185.573 48.148 186.032 45.004C186.147 44.216 186.381 43.431 186.553 43.26C186.724 43.088 186.865 42.392 186.865 41.713C186.865 41.034 186.982 40.406 187.125 40.318C187.268 40.229 187.385 39.585 187.385 38.885C187.385 38.186 187.496 37.546 187.631 37.462C187.766 37.379 187.95 36.757 188.041 36.08C188.131 35.403 188.373 34.33 188.577 33.696C188.781 33.062 188.948 32.173 188.948 31.721C188.948 31.269 189.036 30.812 189.143 30.704C189.343 30.504 189.91 27.845 190.146 25.995C190.22 25.422 190.383 24.719 190.51 24.432C190.637 24.146 190.796 23.443 190.862 22.87C190.929 22.297 191.237 20.891 191.547 19.745C191.857 18.599 192.173 17.345 192.249 16.959C192.391 16.243 193.592 15.892 195.068 16.136C195.354 16.183 195.852 16.224 196.174 16.226ZM170.367 19.116C169.672 19.552 169.054 19.86 168.995 19.8C168.827 19.633 170.798 18.345 171.24 18.333C171.454 18.327 171.062 18.679 170.367 19.116ZM218.375 18.573C218.375 18.716 218.493 18.833 218.636 18.833C218.78 18.833 219.454 19.183 220.134 19.61C220.813 20.037 221.228 20.388 221.055 20.391C220.881 20.394 220.003 19.928 219.102 19.357C218.201 18.785 217.669 18.316 217.919 18.315C218.17 18.314 218.375 18.43 218.375 18.573ZM222.021 20.898C222.021 21.03 222.226 21.192 222.477 21.258C222.861 21.358 222.866 21.382 222.508 21.407C222.275 21.424 221.939 21.262 221.76 21.047C221.536 20.777 221.527 20.656 221.729 20.656C221.889 20.656 222.021 20.765 222.021 20.898ZM165.439 22.219C165.075 22.505 164.687 22.74 164.577 22.74C164.222 22.74 165.368 21.729 165.741 21.713C165.939 21.705 165.804 21.932 165.439 22.219ZM224.024 22.101C224.626 22.703 224.32 22.776 223.579 22.207C223.224 21.933 223.087 21.707 223.276 21.704C223.466 21.701 223.802 21.879 224.024 22.101ZM163.818 23.143C163.531 23.356 163.09 23.704 162.838 23.916C162.586 24.129 162.176 24.293 161.927 24.282C161.564 24.265 161.552 24.231 161.865 24.112C162.079 24.03 162.314 23.891 162.385 23.803C162.634 23.496 163.819 22.767 164.078 22.762C164.221 22.759 164.104 22.93 163.818 23.143ZM226.708 23.801C226.78 23.891 227.009 24.018 227.216 24.085C227.46 24.163 227.495 24.268 227.315 24.379C227.162 24.474 226.699 24.261 226.287 23.906C225.874 23.551 225.449 23.261 225.341 23.261C225.234 23.261 225.146 23.141 225.146 22.994C225.146 22.756 226.382 23.394 226.708 23.801ZM161.198 24.945C160.92 25.155 160.524 25.331 160.317 25.335C160.053 25.341 160.091 25.231 160.448 24.961C160.726 24.751 161.122 24.575 161.328 24.571C161.593 24.565 161.555 24.675 161.198 24.945ZM233.126 27.818C233.618 28.31 233.474 28.311 232.532 27.819C232 27.541 231.922 27.43 232.261 27.429C232.522 27.428 232.911 27.603 233.126 27.818ZM153.271 29.771C153.271 29.914 153.149 30.031 153 30.031C152.85 30.031 152.477 30.266 152.169 30.552C151.862 30.839 151.427 31.064 151.203 31.052C150.852 31.035 150.85 31.012 151.188 30.883C151.402 30.801 151.637 30.657 151.708 30.563C152.148 29.984 153.271 29.415 153.271 29.771ZM237.385 30.552C237.385 30.695 237.59 30.822 237.841 30.833C238.102 30.845 238.161 30.909 237.978 30.983C237.803 31.054 237.396 30.927 237.074 30.702C236.595 30.367 236.57 30.292 236.937 30.292C237.184 30.292 237.385 30.409 237.385 30.552ZM149.365 32.375C149.007 32.655 148.567 32.887 148.388 32.89C148.209 32.893 148.063 33.013 148.063 33.156C148.063 33.299 147.887 33.417 147.672 33.417C147.457 33.417 147.281 33.534 147.281 33.677C147.281 33.82 147.018 33.928 146.695 33.917C146.306 33.903 146.241 33.847 146.5 33.75C146.715 33.669 147.24 33.356 147.666 33.054C149.266 31.923 150.651 31.369 149.365 32.375ZM145.77 34.608C145.448 34.834 145.041 34.96 144.866 34.889C144.683 34.815 144.742 34.751 145.003 34.739C145.253 34.728 145.458 34.602 145.458 34.458C145.458 34.315 145.66 34.198 145.907 34.198C146.273 34.198 146.248 34.273 145.77 34.608ZM243.803 34.589C244.302 35.088 243.923 35.082 243.26 34.58C242.976 34.366 242.899 34.198 243.083 34.198C243.264 34.198 243.588 34.374 243.803 34.589ZM194.037 35.285C193.973 35.475 193.8 36.275 193.653 37.063C193.507 37.85 193.197 39.315 192.964 40.318C192.732 41.32 192.448 42.609 192.333 43.182C192.218 43.755 191.924 45.161 191.678 46.307C191.433 47.453 191.142 48.859 191.032 49.432C190.922 50.005 190.631 51.353 190.384 52.427C189.519 56.193 189.182 57.777 188.96 59.118C188.837 59.862 188.671 60.576 188.592 60.705C188.314 61.153 187.893 64.026 187.911 65.341C187.924 66.237 187.799 66.775 187.527 67.001C187.306 67.184 187.125 67.551 187.125 67.815C187.125 68.268 199.678 68.732 201.513 68.347C202.077 68.229 202.107 67.45 201.566 67C201.284 66.766 201.177 66.265 201.21 65.34C201.237 64.612 201.053 63.137 200.802 62.063C200.55 60.988 200.256 59.641 200.147 59.068C200.038 58.495 199.568 56.327 199.102 54.25C198.636 52.173 198.162 49.947 198.047 49.302C197.932 48.658 197.648 47.31 197.416 46.307C197.184 45.305 196.897 43.957 196.78 43.313C196.662 42.668 196.362 41.262 196.113 40.188C195.864 39.113 195.526 37.533 195.363 36.675C195.072 35.154 194.343 34.389 194.037 35.285ZM143.955 35.761C143.486 36.047 143.017 36.279 142.913 36.275C142.549 36.264 144.03 35.251 144.417 35.246C144.632 35.244 144.424 35.475 143.955 35.761ZM194.938 36.676C194.938 37.036 195.106 38.003 195.311 38.824C195.517 39.646 195.818 41.021 195.981 41.88C196.258 43.347 196.513 44.458 197.292 47.609C197.643 49.027 197.974 50.783 198.276 52.818C198.382 53.534 198.564 54.273 198.681 54.46C198.797 54.647 199.003 55.467 199.139 56.283C199.674 59.506 199.77 59.964 200.662 63.545C200.953 64.713 201.205 64.667 194.503 64.667C187.553 64.667 188.163 64.962 188.848 61.932C189.438 59.321 189.725 57.946 189.988 56.464C190.115 55.747 190.406 54.341 190.635 53.339C190.864 52.336 191.115 50.988 191.192 50.344C191.27 49.699 191.404 48.996 191.49 48.781C191.577 48.566 191.795 47.746 191.976 46.958C192.737 43.65 193.141 41.805 193.375 40.578C194.17 36.411 194.274 36.021 194.596 36.021C194.787 36.021 194.938 36.31 194.938 36.676ZM142.188 36.924C141.91 37.134 141.513 37.31 141.307 37.315C141.042 37.32 141.081 37.21 141.437 36.941C141.715 36.73 142.112 36.555 142.318 36.55C142.583 36.544 142.544 36.655 142.188 36.924ZM248.063 37.323C248.063 37.466 248.268 37.593 248.518 37.604C248.779 37.616 248.838 37.68 248.655 37.754C248.48 37.825 248.073 37.698 247.751 37.473C247.272 37.138 247.247 37.063 247.614 37.063C247.861 37.063 248.063 37.18 248.063 37.323ZM125.978 47.108C125.656 47.334 125.249 47.46 125.074 47.389C124.892 47.315 124.95 47.251 125.211 47.239C125.462 47.228 125.667 47.102 125.667 46.958C125.667 46.815 125.869 46.698 126.115 46.698C126.482 46.698 126.457 46.773 125.978 47.108ZM119.792 50.987C119.136 51.482 118.78 51.493 119.211 51.005C119.396 50.795 119.716 50.62 119.922 50.614C120.186 50.607 120.147 50.718 119.792 50.987ZM118.226 52.018C117.95 52.22 117.675 52.334 117.613 52.273C117.552 52.212 117.727 51.996 118.003 51.795C118.279 51.593 118.555 51.478 118.616 51.54C118.677 51.601 118.502 51.816 118.226 52.018ZM114.028 54.618C113.626 54.964 113.24 55.191 113.171 55.121C113.029 54.98 114.222 54.004 114.548 53.995C114.664 53.992 114.429 54.273 114.028 54.618ZM109.131 57.634C109.043 57.776 108.714 58.026 108.4 58.189L107.828 58.484L108.349 57.945C108.888 57.387 109.413 57.178 109.131 57.634ZM106.187 59.608C105.865 59.834 105.458 59.96 105.282 59.889C105.1 59.815 105.158 59.751 105.419 59.739C105.67 59.728 105.875 59.602 105.875 59.458C105.875 59.315 106.077 59.198 106.324 59.198C106.69 59.198 106.665 59.273 106.187 59.608ZM104.768 60.419C104.518 60.485 104.313 60.647 104.313 60.78C104.313 60.912 104.114 61.021 103.872 61.021C103.488 61.021 103.496 60.972 103.937 60.638C104.215 60.428 104.618 60.266 104.833 60.278C105.107 60.293 105.087 60.336 104.768 60.419ZM349.082 67.685C349.425 68.021 346.818 68.057 324.99 68.017C311.827 67.993 300.49 67.996 299.796 68.023C299.103 68.05 298.282 67.98 297.973 67.867C297.664 67.754 307.197 67.603 319.156 67.531C339.905 67.407 348.845 67.453 349.082 67.685ZM177.776 67.77C177.258 68.098 95.438 68.123 94.938 67.795C94.681 67.627 108.895 67.539 136.344 67.539C160.703 67.539 177.989 67.635 177.776 67.77ZM201.324 67.782C201.121 68.11 187.968 68.102 187.765 67.774C187.674 67.626 190.332 67.531 194.547 67.531C198.919 67.531 201.421 67.624 201.324 67.782ZM294.156 67.787C293.625 68.124 211.414 68.116 211.206 67.779C211.109 67.623 226.426 67.533 252.8 67.535C279.314 67.538 294.404 67.63 294.156 67.787ZM1.07801 68.378C1.01301 68.7 0.904014 69.467 0.836014 70.082L0.713013 71.201L2.31701 71.124L3.92201 71.047L4.00101 69.806C4.12201 67.919 1.43801 66.607 1.07801 68.378ZM7.15501 67.9C6.84101 68.214 7.25901 70.633 7.65701 70.798C7.89401 70.896 11.253 71.02 15.12 71.072L22.151 71.166L22.477 70.469C22.879 69.606 22.883 69.296 22.5 68.455L22.198 67.792H14.731C10.624 67.792 7.21501 67.84 7.15501 67.9ZM366.292 68.781C366.292 69.326 366.438 70.094 366.617 70.488L366.943 71.204L374.065 71.146C381.907 71.083 381.917 71.08 381.917 69.487C381.917 67.689 382.4 67.792 373.946 67.792H366.292V68.781ZM385.367 68.181C385.001 68.597 384.935 70.346 385.266 70.867C385.409 71.093 385.914 71.181 386.76 71.128L388.036 71.047L388.12 70.03C388.29 67.944 386.585 66.798 385.367 68.181ZM3.50001 69.035C4.02301 70.013 2.88801 70.732 1.59901 70.238C1.19001 70.081 1.03001 69.078 1.36101 68.747C1.73601 68.372 3.25401 68.577 3.50001 69.035ZM21.869 68.731C22.403 68.936 22.403 70.033 21.869 70.238C21.643 70.325 18.488 70.396 14.859 70.396C11.23 70.396 8.07601 70.325 7.84901 70.238C7.29901 70.026 7.32501 69.185 7.89301 68.854C8.38401 68.568 21.152 68.456 21.869 68.731ZM381.244 68.731C381.471 68.818 381.656 69.157 381.656 69.484C381.656 70.365 381.407 70.396 374.234 70.396C370.605 70.396 367.451 70.325 367.224 70.238C366.736 70.05 366.671 68.934 367.138 68.745C367.608 68.556 380.753 68.543 381.244 68.731ZM387.494 68.731C388.178 68.993 388.009 70.1 387.255 70.289C386.302 70.528 385.302 70.207 385.302 69.662C385.302 68.746 386.361 68.296 387.494 68.731ZM82.815 70.938C82.633 71.233 83.183 71.887 85.563 74.206L86.995 75.601L131.689 75.603C167.134 75.604 176.438 75.537 176.646 75.279C176.901 74.961 177.105 74.006 177.398 71.763L177.542 70.656H133.295C86.439 70.656 87.798 70.622 88.246 71.79C88.372 72.119 88.762 72.22 89.916 72.222C92.246 72.228 92.636 72.397 92.543 73.36L92.464 74.172L89.273 74.245C87.303 74.29 86.083 74.22 86.083 74.062C86.083 73.92 85.79 73.512 85.432 73.154C84.656 72.378 84.586 71.698 85.281 71.698C86.057 71.698 86.604 71.417 86.604 71.019C86.604 70.57 83.089 70.494 82.815 70.938ZM189.208 70.912C188.993 71.049 188.384 71.092 187.854 71.007C186.802 70.84 186.785 70.866 186.514 73C186.45 73.501 186.317 74.161 186.218 74.466C185.954 75.284 186.892 75.39 195.482 75.517C201.615 75.607 202.981 75.563 203.228 75.265C203.524 74.908 202.929 71.815 202.404 70.982C202.152 70.582 189.83 70.517 189.208 70.912ZM214.438 70.773C214.374 70.838 213.856 70.939 213.288 70.998L212.255 71.106L212.344 72.769C212.441 74.582 212.734 75.071 213.86 75.301C214.267 75.384 234.286 75.486 258.349 75.528L302.099 75.605L304.182 73.544C305.328 72.41 306.266 71.326 306.266 71.135C306.266 70.768 303.315 70.484 302.553 70.776C301.986 70.993 302.647 71.698 303.418 71.698C304.343 71.698 304.398 72.101 303.631 73.259L302.931 74.317L299.781 74.245L296.63 74.172L296.55 73.349C296.461 72.425 296.758 72.3 299.218 72.228C301.081 72.173 301.658 71.442 300.259 70.91C299.6 70.66 214.688 70.524 214.438 70.773ZM176.844 72.023C176.742 72.346 176.581 73.078 176.488 73.651L176.318 74.693L134.911 74.76C93.177 74.827 92.609 74.82 93.023 74.234C93.23 73.942 93.264 73.5 93.153 72.532C93.132 72.346 92.734 72.028 92.268 71.826C91.535 71.507 97.123 71.457 134.226 71.448L177.029 71.438L176.844 72.023ZM202.229 72.594C202.229 73.23 202.346 73.823 202.49 73.911C203.759 74.696 202.731 74.832 196.044 74.762L189.339 74.693L189.386 73.601C189.485 71.347 189.204 71.438 196.119 71.438H202.229V72.594ZM296.54 71.86C295.713 72.221 295.673 72.301 295.76 73.398C295.823 74.193 295.743 74.597 295.504 74.689C294.951 74.901 216.193 74.836 215.878 74.624C215.621 74.45 214.99 72.381 214.99 71.713C214.99 71.52 227.401 71.444 256.201 71.459C292.58 71.477 297.309 71.525 296.54 71.86ZM86.527 72.644C85.658 73.512 87.586 73.983 90.25 73.554L91.422 73.364L89.95 72.922C88.461 72.474 86.828 72.342 86.527 72.644ZM299.234 72.803C298.805 72.95 298.277 73.134 298.063 73.211C297.475 73.423 301.074 73.866 301.833 73.676C302.258 73.569 302.49 73.329 302.49 72.995C302.49 72.405 300.702 72.299 299.234 72.803ZM26.765 72.934C22.831 73.013 22.781 73.021 22.495 73.65C22.336 74 22.105 74.224 21.983 74.148C21.648 73.941 21.716 74.293 22.086 74.679C22.265 74.866 22.584 75.268 22.794 75.572C23.263 76.249 30.106 76.437 30.698 75.789C31.45 74.968 31.605 74.419 31.229 73.906C31.028 73.631 30.921 73.256 30.991 73.073C31.062 72.889 31.035 72.766 30.932 72.797C30.829 72.829 28.954 72.891 26.765 72.934ZM352.411 72.948C350.058 73.071 349.249 74.162 350.548 75.462C351.475 76.388 353.813 76.437 354.247 75.539C355.163 73.64 354.593 72.835 352.411 72.948ZM34.679 73.412C34.042 75.071 34.79 76.125 36.604 76.125C38.042 76.125 38.43 75.875 38.959 74.606C39.166 74.109 39.104 73.908 38.624 73.508C37.84 72.854 34.92 72.783 34.679 73.412ZM357.829 73.775C357.621 74.722 357.87 75.604 358.345 75.604C358.538 75.604 358.756 75.751 358.828 75.93C358.931 76.183 359.015 76.177 359.208 75.902C359.381 75.655 359.509 75.635 359.634 75.837C359.865 76.21 366.031 76.237 366.031 75.865C366.031 75.721 366.207 75.604 366.422 75.604C366.883 75.604 366.96 74.282 366.543 73.504C366.294 73.038 365.96 73 362.137 73H358L357.829 73.775ZM30.463 73.679C30.997 73.884 30.997 74.981 30.463 75.186C28.798 75.825 22.542 75.23 22.542 74.432C22.542 73.635 28.798 73.04 30.463 73.679ZM38.176 74.058C38.651 74.946 38.058 75.382 36.497 75.291C35.325 75.222 35.162 75.142 35.084 74.592C34.92 73.432 37.593 72.97 38.176 74.058ZM353.922 74.432C353.922 75.204 353.904 75.214 352.518 75.214C350.924 75.214 350.279 74.692 350.919 73.921C351.612 73.086 353.922 73.479 353.922 74.432ZM365.989 73.75C366.18 73.871 366.298 74.25 366.249 74.592L366.161 75.214H362.255H358.349L358.261 74.592C358.128 73.65 358.583 73.529 362.255 73.529C364.117 73.529 365.797 73.628 365.989 73.75ZM157.958 78.065C157.958 78.273 158.289 78.947 158.694 79.562C159.458 80.726 169.089 96.335 169.547 97.152C171.04 99.815 171.517 99.988 171.982 98.035C172.419 96.197 173.024 93.424 173.325 91.88C173.493 91.021 173.785 89.615 173.975 88.755C174.324 87.171 174.517 86.247 175.28 82.505C175.513 81.359 175.813 80.062 175.946 79.622C176.079 79.182 176.188 78.567 176.188 78.255V77.688H167.073C159.285 77.688 157.958 77.742 157.958 78.065ZM184.92 78.273C184.569 79.585 184.289 80.786 183.872 82.766C183.446 84.794 183.286 85.535 182.692 88.234C182.534 88.951 182.301 90.064 182.174 90.708C182.047 91.353 181.757 92.701 181.531 93.703C181.304 94.706 181.017 96.053 180.893 96.698C180.769 97.342 180.416 98.983 180.109 100.344C179.406 103.448 179.114 104.816 178.803 106.464C178.667 107.18 178.434 108.175 178.284 108.675C177.727 110.529 178.377 111.897 183.634 119.937C184.265 120.902 184.781 121.749 184.781 121.819C184.781 121.889 185.543 123.123 186.474 124.562C187.405 126.002 188.167 127.24 188.167 127.314C188.167 127.388 188.384 127.766 188.65 128.154C188.916 128.542 189.602 129.621 190.174 130.552C193.649 136.203 194.248 137.082 194.573 137.01C194.941 136.929 197.879 132.282 209.245 113.807C211.29 110.482 211.305 110.416 210.614 107.635C210.454 106.991 210.187 105.76 210.021 104.901C209.855 104.042 209.567 102.694 209.382 101.906C209.196 101.118 208.849 99.536 208.61 98.391C208.371 97.245 208.069 95.947 207.937 95.508C207.806 95.068 207.698 94.401 207.698 94.027C207.698 93.653 207.57 93.017 207.414 92.613C207.257 92.21 207.025 91.236 206.898 90.448C206.771 89.66 206.501 88.313 206.299 87.453C205.373 83.52 205.013 81.9 204.827 80.813C204.717 80.168 204.492 79.201 204.327 78.664L204.028 77.688H194.552H185.077L184.92 78.273ZM213.04 77.942C212.89 78.185 213.178 79.772 214.104 83.807C214.334 84.81 214.616 86.239 214.731 86.983C214.846 87.727 215.035 88.488 215.15 88.674C215.265 88.861 215.457 89.6 215.576 90.317C216.297 94.674 217.092 98.129 217.578 99.023C218.001 99.8 217.873 99.952 220.639 95.396C221.727 93.605 223.851 90.148 225.361 87.714C230.259 79.813 231.133 78.344 231.134 78.013C231.136 77.602 213.293 77.532 213.04 77.942ZM175.666 78.143C175.666 78.251 175.481 79.217 175.255 80.292C175.029 81.366 174.741 82.831 174.614 83.547C173.896 87.627 173.691 88.566 172.909 91.382C172.707 92.111 172.542 92.931 172.542 93.205C172.543 93.838 171.799 97.114 171.432 98.093L171.153 98.837L170.681 98.223C170.422 97.886 170.207 97.52 170.204 97.411C170.201 97.302 169.687 96.423 169.063 95.458C167.133 92.475 166.159 90.918 164.869 88.755C163.548 86.542 160.8 82.101 159.352 79.84C158.872 79.09 158.479 78.358 158.479 78.212C158.479 78.039 161.431 77.948 167.073 77.948C171.799 77.948 175.667 78.036 175.666 78.143ZM203.727 78.273C203.87 78.452 204.064 79.009 204.159 79.51C204.254 80.012 204.439 80.949 204.57 81.594C204.7 82.238 204.935 83.458 205.091 84.304C205.247 85.15 205.434 85.94 205.507 86.058C205.581 86.177 205.749 86.891 205.88 87.645C206.012 88.399 206.293 89.777 206.505 90.708C207.491 95.046 207.731 96.136 207.968 97.349C208.108 98.065 208.406 99.471 208.63 100.474C208.853 101.477 209.134 102.824 209.254 103.469C209.374 104.113 209.716 105.754 210.014 107.115C210.723 110.351 210.707 110.659 209.759 112.194C209.318 112.91 207.841 115.311 206.478 117.531C205.115 119.751 203.734 121.978 203.409 122.479C203.084 122.98 202.012 124.714 201.026 126.332C200.041 127.95 198.735 130.06 198.124 131.02C197.513 131.98 196.517 133.614 195.91 134.651C194.5 137.061 194.661 137.133 192.102 132.95C188.547 127.14 187.074 124.748 186.453 123.781C185.083 121.645 179.048 111.769 178.686 111.069C178.342 110.403 178.337 110.125 178.65 108.905C179.681 104.883 179.833 104.212 179.833 103.686C179.833 103.372 179.943 102.755 180.077 102.315C180.408 101.232 180.867 99.188 181.135 97.609C181.341 96.393 181.523 95.564 182.577 91.033C182.802 90.067 183.084 88.749 183.205 88.104C183.326 87.46 183.624 86.053 183.868 84.979C184.112 83.905 184.372 82.499 184.444 81.854C184.517 81.21 184.668 80.565 184.779 80.422C184.89 80.279 185.067 79.751 185.172 79.25C185.277 78.749 185.415 78.251 185.478 78.143C185.691 77.782 203.436 77.908 203.727 78.273ZM230.448 78.15C230.517 78.261 230.055 79.201 229.422 80.24C228.789 81.278 228.271 82.181 228.271 82.246C228.271 82.312 227.704 83.217 227.011 84.258C226.318 85.299 224.656 87.967 223.318 90.188C221.979 92.408 220.221 95.258 219.411 96.523L217.938 98.821L217.533 97.434C217.31 96.671 216.991 95.344 216.825 94.484C216.244 91.487 215.702 89.01 215.456 88.234C215.32 87.805 215.095 86.809 214.957 86.021C214.368 82.669 214.217 81.898 213.837 80.292C213.616 79.361 213.489 78.452 213.554 78.273C213.687 77.904 230.221 77.783 230.448 78.15ZM264.339 88.33C258.14 89.768 252.519 94.563 250.781 99.897C250.537 100.644 250.159 101.566 249.941 101.946C249.627 102.491 249.593 102.929 249.779 104.029L250.016 105.422L268.071 105.489L286.127 105.556L286.617 104.968C288.651 102.531 284.752 94.997 279.556 91.324C275.388 88.377 269.302 87.18 264.339 88.33ZM161.211 88.369C161.079 88.582 161.584 89.57 162.208 90.318C162.327 90.461 162.679 91.014 162.991 91.548C164.914 94.839 167.001 98.192 167.333 98.521C167.405 98.592 167.639 99.003 167.852 99.432C168.451 100.64 169.901 102.895 170.195 103.076C170.702 103.39 170.417 102.285 169.657 100.995C169.236 100.279 168.725 99.341 168.522 98.911C168.319 98.482 167.558 97.271 166.831 96.221C166.105 95.171 165.51 94.227 165.51 94.124C165.51 94.02 165.211 93.531 164.845 93.038C164.479 92.544 163.715 91.303 163.149 90.279C162.154 88.483 161.524 87.862 161.211 88.369ZM227.193 88.43C226.975 88.609 226.221 89.693 225.517 90.839C223.689 93.814 223.359 94.385 222.942 95.286C222.739 95.727 222.389 96.24 222.166 96.425C221.943 96.61 221.76 96.87 221.76 97.001C221.76 97.133 221.302 97.969 220.741 98.858C220.18 99.747 219.477 100.863 219.178 101.338C218.88 101.814 218.635 102.37 218.635 102.575C218.635 103.254 219.158 102.962 219.599 102.036C219.838 101.535 220.129 101.125 220.246 101.125C220.363 101.125 220.458 100.949 220.458 100.734C220.458 100.52 220.566 100.344 220.698 100.344C220.83 100.344 221.017 99.984 221.113 99.545C221.21 99.106 221.453 98.683 221.655 98.606C221.856 98.528 222.021 98.351 222.021 98.213C222.021 98.074 222.49 97.305 223.063 96.505C223.635 95.705 224.104 94.945 224.104 94.815C224.104 94.686 224.397 94.196 224.755 93.726C225.113 93.257 225.406 92.788 225.406 92.685C225.406 92.581 225.699 92.112 226.057 91.643C226.415 91.173 226.708 90.694 226.708 90.578C226.708 90.462 226.992 89.995 227.338 89.542C228.016 88.653 227.91 87.841 227.193 88.43ZM177.757 114.589C177.75 115.128 178.226 116.462 178.527 116.75C178.839 117.049 180.086 119.012 180.345 119.615C180.499 119.973 180.945 120.756 181.336 121.355C181.727 121.955 182.598 123.361 183.273 124.48C183.947 125.6 184.61 126.646 184.746 126.804C184.882 126.963 185.241 127.579 185.544 128.172C185.846 128.765 186.209 129.25 186.349 129.25C186.489 129.25 186.604 129.364 186.604 129.503C186.604 129.643 187.366 130.989 188.297 132.495C189.228 134.002 189.99 135.302 189.99 135.384C189.99 135.836 191.401 137.318 191.621 137.098C191.863 136.856 191.14 135.216 190.706 135.023C190.598 134.975 190.51 134.829 190.51 134.7C190.51 134.57 190.002 133.72 189.38 132.812C188.758 131.903 188.085 130.789 187.884 130.335C187.683 129.882 187.432 129.51 187.326 129.51C187.22 129.51 186.81 128.917 186.413 128.192C186.017 127.467 185.441 126.413 185.134 125.849C184.827 125.285 184.182 124.213 183.702 123.466C183.221 122.72 182.711 121.91 182.568 121.666C182.424 121.422 181.685 120.245 180.925 119.051C180.164 117.857 179.142 116.236 178.653 115.448C177.988 114.378 177.762 114.161 177.757 114.589ZM210.306 115.648C209.821 116.469 209.286 117.316 209.118 117.531C208.95 117.746 208.435 118.625 207.972 119.484C207.51 120.344 206.924 121.281 206.669 121.568C206.415 121.854 205.707 122.967 205.097 124.042C204.487 125.116 203.488 126.757 202.877 127.688C202.267 128.618 201.49 129.855 201.152 130.436C200.478 131.592 199.503 133.171 197.997 135.542C197.46 136.388 197.021 137.196 197.021 137.338C197.021 138.013 198.324 136.602 199.491 134.663C200.205 133.476 200.93 132.358 201.102 132.178C201.273 131.998 201.496 131.588 201.596 131.267C201.696 130.945 202.084 130.272 202.459 129.771C202.834 129.27 203.364 128.42 203.637 127.883C203.911 127.346 204.233 126.906 204.354 126.906C204.474 126.906 204.573 126.754 204.573 126.569C204.573 126.383 205.071 125.464 205.68 124.526C207.005 122.486 209.803 117.996 210.182 117.301C210.331 117.029 210.588 116.643 210.753 116.444C211.236 115.862 211.574 114.778 211.373 114.454C211.261 114.272 210.842 114.741 210.306 115.648ZM176.319 118.096C176.142 118.57 175.682 120.761 175.415 122.399C175.294 123.143 175.114 123.882 175.016 124.042C174.917 124.201 174.726 124.999 174.59 125.814C174.167 128.367 173.927 129.598 173.592 130.943C173.413 131.659 173.104 132.897 172.904 133.694C172.507 135.282 172.428 136.961 172.741 137.155C173.98 137.921 188.58 138.428 188.853 137.715C188.951 137.461 188.874 137.006 188.684 136.702C188.236 135.989 185.385 131.37 183.441 128.208C176.952 117.657 176.645 117.221 176.319 118.096ZM211.252 119.182C210.762 119.947 208.927 122.906 207.172 125.758C205.417 128.609 203.646 131.433 203.236 132.031C202.825 132.63 202.49 133.205 202.49 133.309C202.49 133.413 202.225 133.86 201.901 134.304C200.857 135.734 200.095 137.336 200.258 137.76C200.525 138.457 215.416 137.7 216.461 136.936C216.863 136.642 216.854 136.434 216.323 134.041C216.009 132.623 215.571 130.643 215.35 129.641C215.129 128.638 214.841 127.458 214.709 127.018C214.577 126.578 214.469 125.952 214.469 125.626C214.469 125.3 214.308 124.429 214.112 123.691C213.698 122.139 213.27 120.167 213.042 118.768C212.82 117.411 212.309 117.529 211.252 119.182ZM212.738 119.543C212.828 120.084 213.073 121.288 213.283 122.219C213.492 123.15 213.794 124.497 213.953 125.214C214.112 125.93 214.351 126.876 214.485 127.315C214.619 127.755 214.729 128.437 214.729 128.83C214.729 129.223 214.841 129.753 214.978 130.009C215.114 130.264 215.359 131.223 215.521 132.14C215.683 133.057 215.92 134.39 216.047 135.103C216.175 135.815 216.184 136.493 216.068 136.609C215.58 137.097 200.667 137.78 200.667 137.315C200.667 137.006 203.683 131.968 206.276 127.948C206.876 127.017 208.457 124.473 209.789 122.295C212.346 118.113 212.481 117.987 212.738 119.543ZM179.478 122.626C180.803 124.765 182.625 127.679 183.526 129.102C184.428 130.524 185.294 131.93 185.451 132.227C185.608 132.523 186.283 133.606 186.951 134.634C188.911 137.648 188.982 137.583 183.719 137.583C179.798 137.583 175.453 137.293 173.625 136.909C172.868 136.749 173.04 134.089 174.043 130.422C174.2 129.849 174.458 128.677 174.617 127.818C174.776 126.958 175.031 125.728 175.183 125.083C176.103 121.182 176.265 120.43 176.379 119.537C176.564 118.085 176.828 118.349 179.478 122.626ZM229.633 135.809C229.794 136.292 230.354 136.372 230.354 135.912C230.354 135.686 230.169 135.5 229.942 135.5C229.715 135.5 229.576 135.639 229.633 135.809ZM162.719 138.407C162.561 138.599 162.231 139.693 161.986 140.839C161.741 141.984 161.48 143.198 161.406 143.536C161.333 143.873 161.399 144.228 161.554 144.323C161.987 144.591 227.043 144.638 227.467 144.372C227.869 144.119 227.304 140.761 226.55 138.924C226.15 137.949 226.266 137.958 222.151 138.59C210.768 140.339 178.173 140.341 166.943 138.594C163.553 138.066 163.021 138.043 162.719 138.407ZM165.072 138.944C165.385 139.12 166.637 139.344 167.854 139.444C169.072 139.544 171.61 139.751 173.496 139.904C175.381 140.058 177.234 140.301 177.614 140.446C178.606 140.823 210.807 140.802 211.783 140.424C212.563 140.121 216.643 139.697 220.719 139.495C222.079 139.427 223.304 139.262 223.44 139.129C224.001 138.578 225.927 138.843 225.929 139.471C225.93 139.794 226.105 140.393 226.319 140.803C226.533 141.213 226.708 141.88 226.708 142.285C226.708 142.69 226.826 143.094 226.969 143.182C227.112 143.271 227.229 143.454 227.229 143.588C227.229 143.74 214.839 143.833 194.665 143.833H162.101L162.261 142.857C162.91 138.874 163.495 138.06 165.072 138.944ZM4.31301 144.523C4.31301 144.716 4.12401 144.875 3.89401 144.875C3.35801 144.875 3.61401 146.15 4.24601 146.633C4.88201 147.118 7.43801 147.066 7.43801 146.568C7.43801 146.353 7.61301 146.177 7.82801 146.177C8.04501 146.177 8.21902 145.946 8.21902 145.656C8.21902 145.37 8.08501 145.135 7.92201 145.135C7.75901 145.135 7.49501 144.972 7.33601 144.773C6.93101 144.265 4.31301 144.049 4.31301 144.523ZM359.15 144.973C358.745 146.996 358.583 146.96 368.068 146.95C376.722 146.941 377.49 146.837 377.49 145.68C377.49 144.45 376.951 144.372 367.88 144.296L359.299 144.224L359.15 144.973ZM12.06 144.897C11.463 145.551 11.485 145.882 12.165 146.472C12.762 146.99 28.726 147.24 29.507 146.744C29.942 146.468 30.121 144.796 29.742 144.553C28.966 144.057 12.535 144.376 12.06 144.897ZM381.75 144.745C381.668 144.96 381.437 145.135 381.238 145.135C381.038 145.135 380.875 145.37 380.875 145.656C380.875 145.943 381.038 146.177 381.238 146.177C381.437 146.177 381.668 146.353 381.75 146.568C381.925 147.024 383.836 147.107 384.895 146.704C385.665 146.411 385.898 144.875 385.172 144.875C384.957 144.875 384.781 144.758 384.781 144.615C384.781 144.171 381.923 144.294 381.75 144.745ZM6.87701 145.106C7.66401 145.604 7.09102 146.304 5.82902 146.386C4.60502 146.465 3.97302 145.896 4.44102 145.138C4.63802 144.819 6.38801 144.796 6.87701 145.106ZM29.443 145.656V146.307L21.074 146.376C13.517 146.438 12.688 146.403 12.54 146.017C12.118 144.917 12.545 144.864 21.209 144.936L29.443 145.005V145.656ZM376.421 145.233C377.361 146.366 376.868 146.438 368.079 146.438C359.294 146.438 359.172 146.421 359.615 145.266C359.829 144.707 375.958 144.675 376.421 145.233ZM384.493 145.233C385.06 145.915 384.548 146.438 383.313 146.438C382.123 146.438 381.705 146.061 382.011 145.266C382.204 144.763 384.083 144.738 384.493 145.233ZM276.367 148.993C275.46 149.068 275.382 149.135 275.456 149.774L275.536 150.474L294.318 150.541C314.184 150.611 313.978 150.623 313.534 149.465C313.387 149.082 312.048 149.039 299.402 149.017C291.719 149.003 283.616 148.974 281.396 148.952C279.176 148.929 276.913 148.948 276.367 148.993ZM319.77 149.436C319.372 150.473 320.022 150.604 325.551 150.604C331.086 150.604 331.717 150.454 331.007 149.304C330.716 148.834 319.953 148.96 319.77 149.436ZM227.381 150.799C227.274 150.907 221.659 151.053 214.903 151.125L202.62 151.255V152.166V153.077L207.307 152.997C209.885 152.952 213.284 152.807 214.859 152.674C219.281 152.3 226.074 152.358 226.917 152.776C228.268 153.448 229.549 152.623 229.216 151.296C229.043 150.606 227.887 150.293 227.381 150.799ZM184.918 151.625C184.551 152.781 185.146 153.18 187.046 153.055C188.846 152.936 189.261 152.683 189.145 151.776C189.042 150.976 185.168 150.838 184.918 151.625ZM77.396 152.758C77.318 153.055 77.314 153.396 77.387 153.514C77.46 153.632 83.422 153.729 90.634 153.729C97.847 153.729 103.787 153.817 103.835 153.924C103.883 154.032 106.09 154.061 108.74 153.99L113.557 153.859L113.64 153.143L113.722 152.427L106.869 152.403C103.1 152.389 94.958 152.342 88.776 152.298C77.583 152.217 77.537 152.219 77.396 152.758ZM119.236 152.855C118.841 153.884 119.651 153.99 127.921 153.99C136.272 153.99 136.583 153.943 136.157 152.753C135.955 152.19 119.453 152.29 119.236 152.855ZM194.417 153.493C194.417 153.65 194.651 153.839 194.938 153.914C195.269 154.001 195.458 154.269 195.458 154.652C195.458 154.984 195.612 155.409 195.8 155.599C195.988 155.788 196.555 156.646 197.06 157.505C197.566 158.365 198.51 159.888 199.158 160.891C199.807 161.893 200.598 163.228 200.917 163.857C201.235 164.486 201.72 165.241 201.994 165.535C202.834 166.436 202.231 166.554 196.585 166.587L191.161 166.62V167.401V168.182L196.572 168.253C200.27 168.301 202.16 168.229 202.541 168.024C202.984 167.787 203.157 167.804 203.38 168.107C203.535 168.317 203.93 168.83 204.258 169.247C204.851 170.001 206.506 172.662 208.355 175.832C210.143 178.9 211.162 180.169 211.767 180.082C212.288 180.008 212.258 179.908 211.246 178.364C210.655 177.462 209.965 176.384 209.712 175.969C209.459 175.553 208.786 174.51 208.215 173.651C207.644 172.792 207.056 171.805 206.906 171.458C206.757 171.111 206.246 170.291 205.77 169.635C205.294 168.979 204.625 167.96 204.283 167.371C203.163 165.44 201.374 162.466 200.951 161.833C200.723 161.492 200.417 161.023 200.271 160.791C200.125 160.559 199.685 159.874 199.294 159.268C198.903 158.662 198.583 158.106 198.583 158.032C198.583 157.958 198.173 157.326 197.672 156.628C197.171 155.931 196.76 155.219 196.76 155.047C196.76 154.674 196.119 153.99 195.769 153.99C195.633 153.99 195.376 153.814 195.198 153.599C194.818 153.141 194.417 153.087 194.417 153.493ZM202.49 153.729C202.994 154.055 203.271 154.055 203.271 153.729C203.271 153.586 203.007 153.471 202.685 153.473C202.211 153.476 202.174 153.525 202.49 153.729ZM160.628 154.24C158.302 155.678 159.569 156.143 166.031 156.222C168.824 156.256 171.344 156.289 171.63 156.296C175.362 156.389 178.792 155.829 178.792 155.127C178.792 153.97 178.421 153.922 170.25 154.014C165.996 154.062 162.281 154.014 161.995 153.909C161.653 153.782 161.183 153.896 160.628 154.24ZM191.922 154.69C191.677 155.092 191.26 155.739 190.994 156.127C190.728 156.516 190.51 156.885 190.51 156.948C190.51 157.176 188.628 159.854 188.336 160.04C187.985 160.265 186.496 160.305 186.286 160.095C186.121 159.93 187.149 157.812 187.46 157.676C187.908 157.479 189.42 154.946 189.29 154.609C189.021 153.907 188.546 154.277 187.671 155.869C187.183 156.757 186.681 157.605 186.555 157.754C186.428 157.904 185.967 158.524 185.53 159.133C184.741 160.233 184.727 160.24 183.098 160.24C181.981 160.24 181.359 160.36 181.145 160.619C180.652 161.213 181.066 161.542 182.307 161.542C183.889 161.542 183.953 161.866 182.717 163.627C182.127 164.47 181.497 165.487 181.318 165.889C181.139 166.291 180.452 167.44 179.792 168.443C179.131 169.445 178.336 170.754 178.025 171.35C177.714 171.947 177.186 172.731 176.851 173.093C176.338 173.646 175.406 175.208 175.406 175.514C175.406 176.357 177.988 173.761 178.922 171.978C179.92 170.073 180.443 169.205 182.359 166.275C183.42 164.653 184.397 163.039 184.53 162.69C184.814 161.943 185.858 161.475 186.745 161.698C187.453 161.876 187.232 162.567 185.915 164.301C185.578 164.744 185.302 165.23 185.302 165.381C185.302 165.532 184.833 166.28 184.26 167.042C183.688 167.805 183.219 168.526 183.219 168.645C183.219 168.764 182.766 169.529 182.214 170.345C181.661 171.161 181.131 172.076 181.035 172.38C180.94 172.683 180.63 173.141 180.348 173.397C180.065 173.653 179.833 173.964 179.833 174.088C179.833 174.404 178.134 176.919 177.466 177.592C176.889 178.173 176.959 179.257 177.572 179.243C177.894 179.236 178.991 177.691 180.248 175.474C180.654 174.758 181.488 173.39 182.102 172.434C182.716 171.477 183.219 170.606 183.219 170.497C183.219 170.388 183.445 170.057 183.722 169.762C183.999 169.466 184.556 168.621 184.959 167.883C188.253 161.862 188.598 161.542 191.78 161.542C194.164 161.542 194.73 161.321 194.147 160.619C193.924 160.351 193.281 160.24 191.954 160.24C189.757 160.24 189.601 160.149 190.226 159.234C191.598 157.227 192.915 154.987 192.948 154.607C193.01 153.871 192.389 153.921 191.922 154.69ZM199.123 154.966C199.122 155.36 199.088 156.025 199.048 156.443C198.983 157.115 199.08 157.232 199.872 157.441C200.858 157.7 201.188 158.032 202.01 159.589C202.312 160.161 202.667 160.7 202.799 160.785C202.931 160.869 203.358 161.573 203.747 162.347C204.519 163.88 205.29 165.122 205.807 165.662C205.987 165.851 206.135 166.123 206.135 166.266C206.135 166.49 207.511 168.756 210.102 172.801C210.494 173.412 211.015 174.296 211.262 174.767C211.523 175.266 211.876 175.59 212.109 175.545C212.769 175.418 212.737 174.557 212.044 173.821C211.687 173.441 210.791 172.076 210.054 170.786C208.335 167.784 208.623 168.252 206.58 165.144C202.963 159.641 201.928 157.822 202.284 157.592C202.633 157.367 221.731 157.328 222.706 157.55C223.012 157.62 223.385 157.931 223.535 158.242L223.808 158.807L223.826 158.252C223.853 157.413 224.23 157.382 234.424 157.379C244.31 157.375 244.752 157.323 244.33 156.223C244.171 155.809 232.762 155.505 221.63 155.619C218.622 155.649 212.724 155.676 208.522 155.678L200.882 155.682L200.266 154.966C199.927 154.572 199.532 154.25 199.388 154.25C199.243 154.25 199.124 154.572 199.123 154.966ZM248.195 156.069C247.526 157.152 248.212 157.373 252.377 157.422C254.587 157.447 256.66 157.476 256.982 157.487C257.463 157.502 257.568 157.366 257.568 156.724V155.943L252.964 155.872C250.006 155.826 248.302 155.897 248.195 156.069ZM201.318 156.594C201.409 156.741 201.195 156.854 200.828 156.854C200.47 156.854 200.104 156.737 200.016 156.594C199.925 156.447 200.138 156.333 200.506 156.333C200.864 156.333 201.229 156.451 201.318 156.594ZM165.268 157.883C165.254 158.568 165.322 158.709 165.554 158.477C165.779 158.252 165.783 158.018 165.572 157.579C165.303 157.021 165.284 157.039 165.268 157.883ZM256.917 158.34C256.415 158.585 255.947 158.862 255.875 158.955C255.803 159.049 255.364 159.32 254.898 159.559C254.433 159.797 254.052 160.089 254.052 160.206C254.052 160.324 253.818 160.691 253.531 161.021C253.245 161.351 253.01 161.838 253.01 162.102C253.01 162.367 252.864 162.587 252.685 162.592C252.503 162.596 252.589 162.78 252.88 163.007C253.305 163.339 253.846 163.385 255.808 163.254C258.011 163.108 258.253 163.139 258.665 163.62C258.913 163.909 259.212 164.146 259.33 164.146C260.283 164.146 260.953 165.593 260.953 167.65V169.745L259.911 169.829C259.339 169.876 258.684 170.081 258.458 170.285C258.146 170.567 257.284 170.653 254.91 170.638C253.185 170.627 251.291 170.749 250.7 170.908L249.625 171.197V173.279C249.625 175.764 249.33 175.586 253.664 175.702C257.225 175.796 259.407 176.296 259.906 177.131C260.729 178.509 260.998 179.892 260.622 180.813C259.915 182.545 259.723 182.635 256.761 182.635C255.288 182.635 254.017 182.742 253.937 182.871C253.857 183.001 253.566 183.049 253.292 182.977C252.285 182.713 251.922 183.25 252.776 183.74C253.205 183.986 253.485 184.073 253.398 183.932C253.102 183.454 253.599 183.675 254.088 184.24C254.357 184.549 254.501 184.871 254.409 184.956C254.317 185.04 254.189 184.963 254.125 184.784C253.992 184.412 253.271 184.337 253.271 184.695C253.271 184.825 253.945 185.575 254.768 186.362C258.623 190.043 260.662 191.158 263.885 191.349C268.748 191.637 265.801 192.188 257.828 192.48L252.88 192.661V193.313V193.964L268.375 193.88C284.468 193.794 284.34 193.802 284.091 192.852L283.939 192.27L277.264 192.371C273.592 192.427 270.383 192.557 270.131 192.661C269.409 192.957 268.3 192.116 268.622 191.515C268.762 191.252 268.806 190.966 268.719 190.879C268.632 190.792 268.697 190.557 268.863 190.357C269.029 190.157 269.092 189.802 269.003 189.569C268.911 189.33 268.97 189.146 269.139 189.146C269.303 189.146 269.775 188.896 270.188 188.591C270.767 188.163 271.435 188.008 273.107 187.913C274.3 187.845 275.445 187.655 275.652 187.491C275.941 187.261 275.982 187.267 275.831 187.518C275.68 187.771 276.271 187.844 278.466 187.844H281.296L282.062 186.781C282.898 185.622 282.954 185.564 284.195 184.569C285.785 183.296 285.216 182.905 281.765 182.899C277.457 182.892 275.858 182.161 276.3 180.4C276.49 179.642 277.303 179.51 281.798 179.51C285.93 179.51 286.542 179.411 285.965 178.834C285.68 178.549 284.626 178.469 281.186 178.469C276.481 178.469 276.06 178.36 276.359 177.218C276.441 176.903 276.677 176.646 276.882 176.646C277.087 176.646 277.611 176.462 278.045 176.237C278.48 176.012 279.148 175.838 279.53 175.849C279.912 175.861 280.4 175.876 280.615 175.883C281.617 175.917 286.785 175.576 287.19 175.45C287.577 175.33 287.646 174.976 287.646 173.107C287.646 170.61 287.148 169.985 285.609 170.553C284.735 170.876 282.858 170.566 281.948 169.948C281.573 169.693 281.099 169.484 280.896 169.483C280.487 169.482 279.622 168.165 279.592 167.499C279.521 165.917 282.831 162.625 284.158 162.958C284.59 163.066 284.766 163.03 284.657 162.854C284.565 162.705 284.259 162.583 283.975 162.583C283.546 162.583 283.506 162.499 283.732 162.076C284.005 161.566 283.061 160.24 282.426 160.24C282.289 160.24 282.177 160.06 282.177 159.841C282.177 159.621 281.972 159.365 281.721 159.272C281.471 159.179 281.119 158.899 280.94 158.651C280.641 158.235 279.757 158.198 269.832 158.189C263.901 158.183 258.774 158.115 258.438 158.037C258.103 157.959 257.418 158.096 256.917 158.34ZM165.797 160.695C165.783 161.304 165.888 161.802 166.031 161.802C166.331 161.802 166.331 161.177 166.031 160.24C165.854 159.687 165.819 159.755 165.797 160.695ZM216.357 160.891C216.36 161.464 216.414 161.667 216.476 161.343C216.538 161.019 216.536 160.551 216.471 160.302C216.405 160.053 216.354 160.318 216.357 160.891ZM191.724 160.726C192.606 160.731 193.404 160.857 193.497 161.008C193.614 161.196 191.776 161.272 187.596 161.25C182.115 161.223 181.703 161.191 183.349 160.925C184.352 160.763 186.285 160.65 187.646 160.674C189.007 160.698 190.842 160.721 191.724 160.726ZM95.458 161.759C94.552 161.88 94.268 162.22 94.668 162.703C95.172 163.31 116.578 163.31 117.082 162.703C117.283 162.46 117.321 162.207 117.177 162.063C116.957 161.842 96.929 161.562 95.458 161.759ZM291.167 161.744C287.123 161.819 286.538 161.959 287.257 162.678C287.887 163.308 312.914 163.331 313.436 162.703C313.633 162.465 313.673 162.211 313.533 162.082C313.285 161.853 297.869 161.62 291.167 161.744ZM129.418 162.102C128.837 163.042 129.792 163.104 144.805 163.104C159.731 163.104 160.042 163.085 160.042 162.141C160.042 161.675 129.706 161.637 129.418 162.102ZM116.552 162.323C116.552 162.492 112.819 162.583 105.875 162.583C98.931 162.583 95.198 162.492 95.198 162.323C95.198 162.154 98.931 162.063 105.875 162.063C112.819 162.063 116.552 162.154 116.552 162.323ZM159.521 162.323C159.521 162.493 154.443 162.583 144.807 162.583C135.172 162.583 130.094 162.493 130.094 162.323C130.094 162.152 135.172 162.063 144.807 162.063C154.443 162.063 159.521 162.152 159.521 162.323ZM313.167 162.323C313.167 162.493 308.783 162.583 300.536 162.583C292.29 162.583 287.906 162.493 287.906 162.323C287.906 162.153 292.29 162.063 300.536 162.063C308.783 162.063 313.167 162.153 313.167 162.323ZM173.015 166.363C172.909 166.47 170.161 166.719 168.831 166.742C168.526 166.747 168.375 166.956 168.375 167.371C168.375 168.148 168.904 168.304 171.544 168.309C173.824 168.313 174.356 168.453 174.385 169.057C174.402 169.413 174.431 169.419 174.554 169.094C174.792 168.47 175.189 168.321 176.625 168.316C178.401 168.311 179.459 167.371 178.336 166.795C177.838 166.539 173.214 166.164 173.015 166.363ZM212.092 166.411C209.257 166.52 208.263 167.018 209.136 167.891C209.66 168.415 207.53 168.385 241.487 168.339L260.823 168.313V167.559C260.823 167.128 260.655 166.741 260.43 166.655C260.138 166.543 219.867 166.428 217.594 166.533C217.379 166.543 216.617 166.498 215.901 166.433C215.185 166.368 213.471 166.358 212.092 166.411ZM174.69 167.455C174.368 167.517 173.84 167.517 173.518 167.455C173.196 167.393 173.46 167.342 174.104 167.342C174.749 167.342 175.012 167.393 174.69 167.455ZM215.448 167.45C215.199 167.515 214.731 167.517 214.407 167.455C214.083 167.393 214.286 167.339 214.859 167.337C215.432 167.334 215.697 167.385 215.448 167.45ZM222.61 167.454C222.29 167.516 221.704 167.518 221.308 167.458C220.912 167.398 221.174 167.347 221.891 167.345C222.607 167.343 222.931 167.392 222.61 167.454ZM102.479 169.758C101.913 170.44 102.747 171.011 104.229 170.955C105.758 170.897 106.379 170.416 105.745 169.782C105.176 169.214 102.944 169.197 102.479 169.758ZM115.277 169.824C114.62 171.053 114.524 171.045 129.889 171.077C145.369 171.108 145.838 171.071 145.193 169.866C144.783 169.099 115.687 169.058 115.277 169.824ZM260.583 170.941C260.166 171.108 259.863 171.102 259.685 170.925C259.501 170.74 259.698 170.661 260.315 170.673C261.159 170.688 261.176 170.704 260.583 170.941ZM219.308 176.813C219.218 177.049 219.198 177.295 219.263 177.36C219.47 177.567 219.938 177.152 219.938 176.761C219.938 176.25 219.511 176.286 219.308 176.813ZM169.165 177.362C169.159 177.944 169.278 178.208 169.547 178.208C170.044 178.208 170.048 177.672 169.555 177.021C169.193 176.543 169.172 176.561 169.165 177.362ZM218.245 178.035C216.499 178.713 216.351 179.267 217.739 179.926C218.508 180.291 218.833 180.315 219.657 180.068C220.303 179.874 223.333 179.771 228.345 179.771C232.578 179.771 236.226 179.7 236.453 179.613C236.79 179.483 237.041 178.616 236.799 178.415C236.764 178.385 233.043 178.287 228.531 178.198C224.02 178.109 220.035 177.967 219.677 177.884C219.319 177.801 218.674 177.869 218.245 178.035ZM98.779 178.401C90.693 178.464 89.208 178.533 89.208 178.847C89.208 179.459 89.1 179.453 103.271 179.549L116.943 179.641V178.99V178.339L112.646 178.332C110.283 178.329 104.042 178.36 98.779 178.401ZM144.771 178.599C144.313 179.793 144.172 179.78 156.816 179.708C167.891 179.645 168.729 179.609 168.998 179.177C169.221 178.819 169.198 178.658 168.896 178.465C168.176 178.006 144.949 178.135 144.771 178.599ZM189.044 178.593C188.613 179.717 188.929 179.786 194.215 179.711L199.234 179.641V178.99V178.339L194.215 178.268C189.918 178.207 189.174 178.254 189.044 178.593ZM246.279 178.439C244.732 179.419 253.882 180.438 257.112 179.644C257.791 179.478 257.91 178.606 257.286 178.366C256.649 178.122 246.675 178.188 246.279 178.439ZM280.094 184.068C280.094 184.292 279.859 184.458 279.541 184.458C279.079 184.458 279.042 184.394 279.313 184.068C279.491 183.853 279.74 183.677 279.865 183.677C279.991 183.677 280.094 183.853 280.094 184.068ZM188.688 184.719C185.128 184.841 184.911 184.879 184.911 185.37C184.911 185.882 185.128 185.893 197.542 186.021C204.488 186.092 210.303 186.236 210.463 186.34C210.859 186.598 211.672 185.651 211.558 185.064C211.462 184.563 198.757 184.372 188.688 184.719ZM169.214 185.694C168.791 186.232 168.195 187.164 167.89 187.765C167.369 188.794 164.781 192.846 164.248 193.466C164.114 193.623 163.721 194.267 163.375 194.899C163.028 195.53 162.459 196.516 162.11 197.089C161.761 197.661 161.299 198.434 161.084 198.805C160.619 199.607 160.036 200.545 158.544 202.887C157.936 203.843 157.438 204.724 157.438 204.845C157.438 205.317 158.852 204.892 158.99 204.378C159.16 203.743 161.685 199.524 162.65 198.26C163.033 197.759 163.728 196.646 164.194 195.786C165.107 194.106 166.276 192.193 168.073 189.444C170.452 185.805 171.286 183.06 169.214 185.694ZM218.542 185.961C218.465 186.086 218.972 187.118 219.67 188.253C220.367 189.389 221.357 191 221.87 191.834C223.026 193.713 223.042 193.617 221.586 193.522C220.5 193.451 220.316 193.345 219.865 192.531C219.06 191.079 217.95 189.658 217.764 189.844C217.509 190.099 217.559 191.49 217.823 191.49C218.166 191.49 219.496 193.32 219.298 193.518C219.203 193.613 214.719 193.724 209.333 193.765C199.19 193.843 198.587 193.909 199.11 194.886C199.371 195.374 199.332 195.371 209 195.63C209.215 195.635 211.825 195.593 214.8 195.535C220.018 195.433 220.227 195.449 220.715 195.973C221.221 196.515 224.625 202.006 224.625 202.279C224.625 202.393 226.216 204.589 226.596 204.998C226.645 205.052 226.86 205.029 227.072 204.947C227.491 204.787 227.126 203.816 226.119 202.415C225.186 201.118 223.063 197.791 223.063 197.627C223.063 197.534 222.828 197.206 222.542 196.898C221.693 195.987 221.867 195.615 223.101 195.706C223.857 195.762 224.267 195.943 224.468 196.307C224.626 196.594 224.815 196.887 224.889 196.958C225.225 197.285 226.969 199.981 226.969 200.173C226.969 200.292 227.341 200.935 227.795 201.603C229.194 203.658 229.472 204.103 229.647 204.576C229.748 204.845 230.087 205.031 230.476 205.031C231.271 205.031 231.313 204.752 230.615 204.12C230.328 203.861 230.094 203.551 230.094 203.431C230.094 203.311 229.542 202.363 228.868 201.323C228.194 200.283 227.392 198.905 227.086 198.26C226.781 197.616 226.336 196.928 226.099 196.731C225.094 195.9 225.682 195.471 228.01 195.334C229.068 195.272 229.182 195.202 229.182 194.615C229.182 193.973 229.144 193.962 226.633 193.832C223.826 193.687 224.032 193.813 222.806 191.49C220.98 188.03 218.917 185.355 218.542 185.961ZM178.709 188.299C178.647 188.407 178.691 188.729 178.806 189.016C178.989 189.47 179.018 189.446 179.034 188.82C179.052 188.114 178.93 187.918 178.709 188.299ZM103.038 189.384C102.058 190.004 102.97 190.448 105.224 190.448C107.028 190.448 107.484 190.368 107.614 190.031C107.86 189.39 107.216 189.154 105.224 189.154C104.221 189.154 103.237 189.257 103.038 189.384ZM117.247 189.319C116.925 189.641 117.07 190.391 117.485 190.55C117.711 190.637 124.554 190.708 132.691 190.708C148.427 190.708 148.096 190.734 147.636 189.536C147.478 189.126 117.653 188.913 117.247 189.319ZM170.393 189.793C169.999 190.14 169.677 190.499 169.677 190.591C169.677 190.792 167.074 195.037 165.932 196.698C165.49 197.342 164.95 198.194 164.733 198.59C164.035 199.866 161.532 203.845 161.136 204.31C160.794 204.71 160.803 204.78 161.22 204.939C161.779 205.154 162.411 204.436 164.007 201.776C164.608 200.773 165.697 199.016 166.426 197.87C167.156 196.724 167.839 195.611 167.944 195.396C168.862 193.518 171.104 190.188 171.449 190.188C171.843 190.188 171.773 189.362 171.37 189.241C171.227 189.198 170.787 189.447 170.393 189.793ZM293.02 192.866C292.782 193.776 293.061 193.858 296.262 193.816C299.135 193.779 299.365 193.739 299.365 193.276C299.365 192.628 299.226 192.594 295.937 192.451C293.3 192.335 293.153 192.356 293.02 192.866ZM172.097 193.68C170.931 194.076 170.521 194.521 170.937 194.937C171.391 195.391 173.659 195.862 174.257 195.628C174.531 195.52 175.524 195.424 176.463 195.414C177.559 195.402 178.353 195.256 178.677 195.005C179.521 194.353 178.548 193.835 176.463 193.827C175.524 193.824 174.345 193.725 173.843 193.609C173.288 193.48 172.605 193.507 172.097 193.68ZM127.753 194.221C126.768 195.407 126.607 195.396 145.32 195.396C164.264 195.396 163.872 195.424 162.594 194.146C162.076 193.629 128.184 193.701 127.753 194.221ZM220.979 194.615C220.979 194.944 220.447 194.944 219.938 194.615C219.633 194.418 219.705 194.361 220.263 194.358C220.657 194.356 220.979 194.471 220.979 194.615ZM224.755 194.615C224.961 194.947 224.098 194.947 223.583 194.615C223.278 194.417 223.345 194.361 223.893 194.358C224.279 194.356 224.667 194.471 224.755 194.615ZM171.72 201.589C168.825 201.666 167.869 202.025 168.603 202.759C168.929 203.085 172.919 203.318 175.927 203.186C177.643 203.111 179.425 203.126 181.786 203.234C182.503 203.267 187.448 203.245 192.776 203.186C202.831 203.074 203.676 202.977 202.739 202.047C202.371 201.682 180.428 201.358 171.72 201.589ZM212.602 201.593C211.178 201.668 210.342 202.12 210.664 202.641C210.858 202.956 212.778 203.287 214.078 203.231C214.651 203.206 216.35 203.147 217.854 203.099C219.358 203.051 220.852 202.998 221.174 202.98C221.816 202.945 222.025 201.981 221.435 201.778C221.006 201.631 214.488 201.494 212.602 201.593ZM207.177 202.113C207.177 202.592 207.486 203.208 207.726 203.208C208.098 203.208 207.994 202.52 207.568 202.167C207.331 201.97 207.177 201.949 207.177 202.113ZM202.359 202.427C202.466 202.6 196.893 202.688 185.838 202.688C174.891 202.688 169.156 202.598 169.156 202.427C169.156 202.256 174.837 202.167 185.677 202.167C196.41 202.167 202.255 202.258 202.359 202.427ZM221.37 202.427C221.475 202.597 219.718 202.688 216.292 202.688C212.865 202.688 211.108 202.597 211.214 202.427C211.312 202.268 213.294 202.167 216.292 202.167C219.289 202.167 221.272 202.268 221.37 202.427ZM206.96 203.804C206.517 204.341 206.651 205.103 207.135 204.8C207.326 204.68 207.444 204.312 207.395 203.982C207.316 203.443 207.272 203.425 206.96 203.804ZM181.786 204.51C181.698 204.654 181.874 204.771 182.177 204.771C182.48 204.771 182.656 204.654 182.568 204.51C182.479 204.367 182.303 204.25 182.177 204.25C182.051 204.25 181.875 204.367 181.786 204.51Z" fill="#6F42FF"/>
</svg>
