<svg width="10" height="10" viewBox="0 0 506 485" fill="white" xmlns="http://www.w3.org/2000/svg">
<path fill-rule="evenodd" clip-rule="evenodd" d="M292.669 10.823C278.439 31.09 272.933 47.179 272.933 68.5C272.933 100.011 285.07 127.219 309.846 151.247C324.238 165.204 341.159 175.779 359.553 182.31C377.822 188.797 409.889 189.848 428.851 184.582C454.287 177.517 474.13 161.607 488.402 136.837L491.088 132.174L484.176 138.964C467.834 155.017 447.186 161.976 419.589 160.732C383.191 159.091 352.182 145.373 327.697 120.077C307.743 99.464 295.818 75.062 292.822 48.712C291.361 35.865 292.874 22.987 297.399 9.75C299.232 4.387 300.628 0 300.5 0C300.373 0 296.849 4.87 292.669 10.823ZM181.749 42.382C174.212 53.042 166.266 65.079 164.092 69.132C131.542 129.806 147.339 209.935 202.824 265.598C227.745 290.599 254.334 307.334 286.656 318.362C313.754 327.608 354.058 329.261 387.558 322.5C431.107 313.711 466.372 290.239 490.588 253.926C496.488 245.078 506.628 225.295 505.725 224.392C505.51 224.177 503.814 225.913 501.956 228.25C488.911 244.662 469.071 260.125 450.051 268.705C440.445 273.039 424.915 277.951 413.503 280.267C404.142 282.166 399.292 282.499 381 282.499C358.639 282.5 352.603 281.837 334.922 277.436C266.63 260.439 209.142 208.699 188.007 145.211C181.074 124.387 179.62 115.272 179.595 92.5C179.577 75.513 179.908 70.965 181.793 62.312C184.33 50.667 188.902 37.13 193.129 28.75C194.724 25.587 195.899 23 195.741 23C195.583 23 189.287 31.722 181.749 42.382ZM49.467 89.25C29.503 114.577 26.111 119.596 18.882 134.5C-9.06499 192.127 -5.56099 263.017 28.548 330C42.635 357.665 56.841 376.939 80.945 401.087C105.398 425.585 127.969 442.101 157 456.74C182.447 469.571 206.838 477.72 229.5 480.962C289.479 489.541 342.97 482.497 388.5 460.023C427.577 440.734 460.323 409.925 483.37 370.764C488.861 361.434 495.182 348.421 493.213 350.5C492.692 351.05 489.459 354.65 486.028 358.5C460.126 387.565 422.421 408.58 380.483 417.327C359.778 421.645 350.825 422.482 326 422.423C285.946 422.328 259.546 417.493 225 403.925C155.825 376.758 97.321 321.936 67.749 256.571C43.354 202.651 39.207 142.91 56.393 93C58.761 86.125 61.885 77.912 63.336 74.75C64.787 71.588 65.852 69 65.702 69C65.552 69 58.246 78.112 49.467 89.25Z" fill="white"/>
</svg>
