<svg width="230" height="172" viewBox="0 0 230 172" fill="none" xmlns="http://www.w3.org/2000/svg">
<path id="Vector" d="M99.2127 80.3207C99.2127 77.2558 98.0275 74.4481 95.7749 72.1903L27.0778 3.49568C24.831 1.24313 22.0154 0.0552979 18.9422 0.0552979C15.8638 0.0552979 13.0482 1.24576 10.8119 3.49305L3.43775 10.8672C1.19046 13.1171 0.00262892 15.9274 0.00262892 18.9897C0.00262892 22.0681 1.19309 24.8837 3.44038 27.12L56.6387 80.3207L3.43512 133.527C1.18783 135.777 0 138.59 0 141.655C0 144.731 1.19046 147.543 3.43775 149.78L10.7878 157.129C13.0293 159.392 15.8506 160.589 18.9422 160.589C22.0286 160.589 24.8441 159.396 27.0726 157.151L95.7806 88.4484C98.0275 86.1963 99.2127 83.3882 99.2127 80.3207Z" fill="#001C65"/>
<path id="Indicator" d="M218.58 139.668H77.0474C73.8914 139.668 71.0837 140.799 68.9061 142.966C66.7609 145.122 65.627 147.929 65.627 151.086V160.522C65.627 163.699 66.7692 166.512 68.9092 168.646C71.0627 170.805 73.8778 171.945 77.0474 171.945H218.58C221.751 171.945 224.564 170.802 226.699 168.66C228.858 166.509 230 163.694 230 160.519V151.082C230 147.924 228.865 145.117 226.696 142.936C224.543 140.799 221.736 139.668 218.58 139.668Z" fill="#001C65"/>
</svg>
