<svg width="90" height="90" viewBox="0 0 90 90" fill="none" xmlns="http://www.w3.org/2000/svg">
<path d="M88.125 20.625V11.25C88.125 9.17813 86.4469 7.5 84.375 7.5H5.625C3.55312 7.5 1.875 9.17813 1.875 11.25V20.625H88.125Z" fill="#444444"/>
<path d="M84.375 80.625H28.125V20.625H88.125V76.875C88.125 78.9469 86.4469 80.625 84.375 80.625Z" fill="#606060"/>
<path d="M8.4375 16.875C9.9908 16.875 11.25 15.6158 11.25 14.0625C11.25 12.5092 9.9908 11.25 8.4375 11.25C6.8842 11.25 5.625 12.5092 5.625 14.0625C5.625 15.6158 6.8842 16.875 8.4375 16.875Z" fill="#E86C60"/>
<path d="M17.8125 16.875C19.3658 16.875 20.625 15.6158 20.625 14.0625C20.625 12.5092 19.3658 11.25 17.8125 11.25C16.2592 11.25 15 12.5092 15 14.0625C15 15.6158 16.2592 16.875 17.8125 16.875Z" fill="#EFD358"/>
<path d="M27.1875 16.875C28.7408 16.875 30 15.6158 30 14.0625C30 12.5092 28.7408 11.25 27.1875 11.25C25.6342 11.25 24.375 12.5092 24.375 14.0625C24.375 15.6158 25.6342 16.875 27.1875 16.875Z" fill="#72C472"/>
<path d="M30 80.625H5.625C3.55312 80.625 1.875 78.9469 1.875 76.875V20.625H30V80.625Z" fill="#4F4F4F"/>
<path d="M22.5 26.25H9.375V30H22.5V26.25Z" fill="#B3B3B3"/>
<path d="M18.75 37.5H9.375V41.25H18.75V37.5Z" fill="#B3B3B3"/>
<path d="M22.5 48.75H9.375V52.5H22.5V48.75Z" fill="#B3B3B3"/>
<path d="M18.75 60H9.375V63.75H18.75V60Z" fill="#B3B3B3"/>
<path d="M22.5 71.25H9.375V75H22.5V71.25Z" fill="#B3B3B3"/>
<path d="M46.875 26.25H37.5V30H46.875V26.25Z" fill="#E86C60"/>
<path d="M58.125 37.5H45V41.25H58.125V37.5Z" fill="#EFD358"/>
<path d="M69.375 48.75H50.625V52.5H69.375V48.75Z" fill="white"/>
<path d="M58.125 60H45V63.75H58.125V60Z" fill="#EFD358"/>
<path d="M46.875 71.25H37.5V75H46.875V71.25Z" fill="#E86C60"/>
</svg>
