<svg width="83" height="82" viewBox="0 0 83 82" fill="none" xmlns="http://www.w3.org/2000/svg">
<path d="M41.1485 0.0232544C20.1287 0.0232559 21.4413 9.06422 21.4413 9.06422L21.4647 18.4306H41.5234V21.2428H13.4975C13.4975 21.2428 0.046875 19.7298 0.046875 40.7657C0.0468735 61.8015 11.7869 61.0556 11.7869 61.0556H18.7933V51.2941C18.7933 51.2941 18.4157 39.6501 30.3459 39.6501H50.2406C50.2406 39.6501 61.4181 39.8293 61.4181 28.9357V10.9235C61.4181 10.9235 63.1152 0.0232544 41.1485 0.0232544ZM30.0881 6.32171C32.0838 6.32171 33.6968 7.92153 33.6968 9.90091C33.6968 11.8803 32.0838 13.4801 30.0881 13.4801C28.0924 13.4801 26.4794 11.8803 26.4794 9.90091C26.4794 7.92153 28.0924 6.32171 30.0881 6.32171Z" fill="url(#paint0_linear)"/>
<path d="M41.7455 81.7191C62.7653 81.7191 61.4527 72.6781 61.4527 72.6781L61.4292 63.3117H41.3705V60.4995H69.3965C69.3965 60.4995 82.8471 62.0125 82.8471 40.9766C82.8471 19.9408 71.1071 20.6867 71.1071 20.6867H64.1006V30.4482C64.1006 30.4482 64.4783 42.0922 52.5481 42.0922H32.6534C32.6534 42.0922 21.4758 41.913 21.4758 52.8066V70.8188C21.4758 70.8188 19.7788 81.7191 41.7455 81.7191ZM52.8059 75.4206C50.8102 75.4206 49.1972 73.8208 49.1972 71.8414C49.1972 69.862 50.8102 68.2622 52.8059 68.2622C54.8016 68.2622 56.4146 69.862 56.4146 71.8414C56.4146 73.8208 54.8016 75.4206 52.8059 75.4206Z" fill="url(#paint1_linear)"/>
<defs>
<linearGradient id="paint0_linear" x1="8.00414" y1="7.37157" x2="48.7035" y2="47.997" gradientUnits="userSpaceOnUse">
<stop stop-color="#387EB8"/>
<stop offset="1" stop-color="#366994"/>
</linearGradient>
<linearGradient id="paint1_linear" x1="33.19" y1="33.2441" x2="76.9134" y2="74.9177" gradientUnits="userSpaceOnUse">
<stop stop-color="#FFE052"/>
<stop offset="1" stop-color="#FFC331"/>
</linearGradient>
</defs>
</svg>
