<svg width="222" height="236" viewBox="0 0 222 236" fill="none" xmlns="http://www.w3.org/2000/svg">
<mask id="mask0" mask-type="alpha" maskUnits="userSpaceOnUse" x="10" y="33" width="202" height="203">
<path d="M111 236C166.731 236 211.909 190.717 211.909 134.857C211.909 78.9975 166.731 33.7143 111 33.7143C55.2694 33.7143 10.0909 78.9975 10.0909 134.857C10.0909 190.717 55.2694 236 111 236Z" fill="white"/>
</mask>
<g mask="url(#mask0)">
<path d="M111 236C166.731 236 211.909 190.717 211.909 134.857C211.909 78.9975 166.731 33.7143 111 33.7143C55.2694 33.7143 10.0909 78.9975 10.0909 134.857C10.0909 190.717 55.2694 236 111 236Z" fill="#E6E6E6"/>
<path d="M211.909 33.7143H10.0909V236H211.909V33.7143Z" fill="url(#paint0_linear)"/>
</g>
<mask id="mask1" mask-type="alpha" maskUnits="userSpaceOnUse" x="0" y="0" width="222" height="236">
<path d="M10.0909 134.857C10.0909 190.717 55.2694 236 111 236C166.731 236 211.909 190.717 211.909 134.857H222V0H0V134.857H10.0909Z" fill="white"/>
</mask>
<g mask="url(#mask1)">
<mask id="mask2" mask-type="alpha" maskUnits="userSpaceOnUse" x="19" y="13" width="184" height="224">
<path d="M132.864 145.529V162.32H136.508C172.732 162.32 202.098 191.754 202.098 228.063V236.281H19.9015V228.063C19.9015 191.754 49.2676 162.32 85.4924 162.32H89.1364V145.529C73.4334 138.052 62.1459 122.771 60.2628 104.687C54.9565 103.935 50.875 99.3642 50.875 93.838V81.0547C50.875 75.6255 54.8146 71.1185 59.9849 70.2491V64.619C59.9849 36.3788 82.8251 13.4857 111 13.4857C139.175 13.4857 162.015 36.3788 162.015 64.619V70.2491C167.185 71.1185 171.125 75.6255 171.125 81.0547V93.838C171.125 99.3642 167.044 103.935 161.737 104.687C159.854 122.771 148.567 138.052 132.864 145.529Z" fill="white"/>
</mask>
<g mask="url(#mask2)">
<path d="M132.864 145.529V162.32H136.508C172.732 162.32 202.098 191.754 202.098 228.063V236.281H19.9015V228.063C19.9015 191.754 49.2676 162.32 85.4924 162.32H89.1364V145.529C73.4334 138.052 62.1459 122.771 60.2628 104.687C54.9565 103.935 50.875 99.3642 50.875 93.838V81.0547C50.875 75.6255 54.8146 71.1185 59.9849 70.2491V64.619C59.9849 36.3788 82.8251 13.4857 111 13.4857C139.175 13.4857 162.015 36.3788 162.015 64.619V70.2491C167.185 71.1185 171.125 75.6255 171.125 81.0547V93.838C171.125 99.3642 167.044 103.935 161.737 104.687C159.854 122.771 148.567 138.052 132.864 145.529Z" fill="#D0C6AC"/>
<path d="M231.25 13.4857H-9.25001V236.281H231.25V13.4857Z" fill="#EDB98A"/>
<path fill-rule="evenodd" clip-rule="evenodd" d="M162.015 85.6202V106.621C162.015 134.861 139.175 157.755 111 157.755C82.8251 157.755 59.9849 134.861 59.9849 106.621V85.6202V99.3166C59.9849 127.557 82.8251 150.45 111 150.45C139.175 150.45 162.015 127.557 162.015 99.3166V85.6202Z" fill="black" fill-opacity="0.1"/>
</g>
<mask id="mask3" mask-type="alpha" maskUnits="userSpaceOnUse" x="19" y="147" width="184" height="90">
<path fill-rule="evenodd" clip-rule="evenodd" d="M89.1364 147.775C72.8127 149.606 60.2398 154.606 59.9887 167.475C36.4326 177.448 19.9015 200.821 19.9015 228.063V236.281H202.098V228.063C202.098 200.821 185.567 177.448 162.011 167.475C161.76 154.606 149.187 149.606 132.864 147.775V165.06C132.864 177.162 123.075 186.974 111 186.974C98.9251 186.974 89.1364 177.162 89.1364 165.06V147.775Z" fill="white"/>
</mask>
<g mask="url(#mask3)">
<path fill-rule="evenodd" clip-rule="evenodd" d="M89.1364 147.775C72.8127 149.606 60.2398 154.606 59.9887 167.475C36.4326 177.448 19.9015 200.821 19.9015 228.063V236.281H202.098V228.063C202.098 200.821 185.567 177.448 162.011 167.475C161.76 154.606 149.187 149.606 132.864 147.775V165.06C132.864 177.162 123.075 186.974 111 186.974C98.9251 186.974 89.1364 177.162 89.1364 165.06V147.775Z" fill="#B7C1DB"/>
<path d="M231.25 135.84H-9.25001V236.281H231.25V135.84Z" fill="#3C4F5C"/>
<path fill-rule="evenodd" clip-rule="evenodd" d="M83.6705 192.214V236.281H77.2936V188.937C79.3012 190.133 81.4356 191.23 83.6705 192.214ZM144.706 188.937V225.78C144.706 227.545 143.279 228.976 141.518 228.976C139.757 228.976 138.33 227.545 138.33 225.78V192.214C140.564 191.23 142.699 190.133 144.706 188.937Z" fill="#F4F4F4"/>
<path fill-rule="evenodd" clip-rule="evenodd" d="M73.6133 147.459C59.9022 150.058 50.4195 155.237 50.4195 165.34C50.4195 183.34 80.5163 197.931 111 197.931C141.484 197.931 171.581 183.34 171.581 165.34C171.581 155.237 162.098 150.058 148.387 147.459C156.663 150.518 162.015 155.66 162.015 164.217C162.015 182.837 136.67 197.931 111 197.931C85.3296 197.931 59.9849 182.837 59.9849 164.217C59.9849 155.66 65.337 150.518 73.6133 147.459Z" fill="black" fill-opacity="0.16"/>
</g>
<mask id="mask4" mask-type="alpha" maskUnits="userSpaceOnUse" x="93" y="114" width="36" height="19">
<path fill-rule="evenodd" clip-rule="evenodd" d="M93.7987 116.782C94.7624 125.449 102.096 132.188 111 132.188C119.932 132.188 127.283 125.408 128.21 116.702C128.285 116.001 127.504 114.839 126.526 114.839C112.958 114.839 102.562 114.839 95.5924 114.839C94.6083 114.839 93.7022 115.915 93.7987 116.782Z" fill="white"/>
</mask>
<g mask="url(#mask4)">
<path fill-rule="evenodd" clip-rule="evenodd" d="M93.7987 116.782C94.7624 125.449 102.096 132.188 111 132.188C119.932 132.188 127.283 125.408 128.21 116.702C128.285 116.001 127.504 114.839 126.526 114.839C112.958 114.839 102.562 114.839 95.5924 114.839C94.6083 114.839 93.7022 115.915 93.7987 116.782Z" fill="black" fill-opacity="0.7"/>
<path d="M121.021 104.795H101.89C99.3746 104.795 97.3352 106.839 97.3352 109.361V114.839C97.3352 117.361 99.3746 119.405 101.89 119.405H121.021C123.536 119.405 125.576 117.361 125.576 114.839V109.361C125.576 106.839 123.536 104.795 121.021 104.795Z" fill="white"/>
<path d="M106.445 144.971C111.979 144.971 116.466 140.475 116.466 134.927C116.466 129.38 111.979 124.883 106.445 124.883C100.911 124.883 96.4243 129.38 96.4243 134.927C96.4243 140.475 100.911 144.971 106.445 144.971Z" fill="#FF4F6D"/>
<path d="M115.555 144.971C121.089 144.971 125.576 140.475 125.576 134.927C125.576 129.38 121.089 124.883 115.555 124.883C110.021 124.883 105.534 129.38 105.534 134.927C105.534 140.475 110.021 144.971 115.555 144.971Z" fill="#FF4F6D"/>
</g>
<path fill-rule="evenodd" clip-rule="evenodd" d="M100.068 99.3167C100.068 103.351 104.963 106.621 111 106.621C117.037 106.621 121.932 103.351 121.932 99.3167" fill="black" fill-opacity="0.16"/>
<path fill-rule="evenodd" clip-rule="evenodd" d="M84.801 81.3702C84.092 82.2942 83.6705 83.4513 83.6705 84.7071C83.6705 87.7328 86.1176 90.1857 89.1364 90.1857C92.1551 90.1857 94.6023 87.7328 94.6023 84.7071C94.6023 84.4421 94.5835 84.1815 94.5472 83.9266C94.5544 83.7235 94.5201 83.4936 94.4341 83.2527C94.3931 83.1379 94.3491 83.0245 94.3023 82.9125C93.9983 82.0333 93.4773 81.2558 92.8034 80.6444C90.8662 78.6052 87.7758 77.4023 84.5793 77.4023C80.1763 77.4023 76.3887 79.8207 74.7065 83.2894C74.2145 84.3039 75.0588 84.9813 75.8702 84.316C78.0896 82.4963 81.1718 81.3686 84.5793 81.3686C84.6533 81.3686 84.7272 81.3692 84.801 81.3702Z" fill="black" fill-opacity="0.6"/>
<path fill-rule="evenodd" clip-rule="evenodd" d="M137.638 81.3702C136.929 82.2942 136.508 83.4513 136.508 84.7071C136.508 87.7328 138.955 90.1857 141.974 90.1857C144.992 90.1857 147.439 87.7328 147.439 84.7071C147.439 84.4421 147.421 84.1815 147.384 83.9266C147.392 83.7235 147.357 83.4936 147.271 83.2527C147.23 83.1379 147.186 83.0245 147.139 82.9125C146.835 82.0333 146.314 81.2558 145.641 80.6444C143.703 78.6052 140.613 77.4023 137.416 77.4023C133.013 77.4023 129.226 79.8207 127.544 83.2894C127.052 84.3039 127.896 84.9813 128.707 84.316C130.927 82.4963 134.009 81.3686 137.416 81.3686C137.49 81.3686 137.564 81.3692 137.638 81.3702Z" fill="black" fill-opacity="0.6"/>
<path d="M74.2238 71.1555C77.7902 66.1255 87.5676 63.3049 95.9897 65.378C96.967 65.6185 97.9537 65.0195 98.1937 64.04C98.4336 63.0605 97.836 62.0715 96.8588 61.831C87.0779 59.4235 75.7559 62.6897 71.2535 69.0397C70.6706 69.8618 70.863 71.0019 71.6832 71.5862C72.5034 72.1704 73.6409 71.9776 74.2238 71.1555Z" fill="black" fill-opacity="0.6"/>
<path d="M147.777 71.1555C144.21 66.1255 134.433 63.3049 126.011 65.378C125.033 65.6185 124.047 65.0195 123.807 64.04C123.567 63.0605 124.164 62.0715 125.142 61.831C134.922 59.4235 146.244 62.6897 150.747 69.0397C151.33 69.8618 151.137 71.0019 150.317 71.5862C149.497 72.1704 148.359 71.9776 147.777 71.1555Z" fill="black" fill-opacity="0.6"/>
<mask id="mask5" mask-type="alpha" maskUnits="userSpaceOnUse" x="-10" y="-20" width="242" height="257">
<path d="M231.25 -19.3857H-9.25V236.281H231.25V-19.3857Z" fill="white"/>
</mask>
<g mask="url(#mask5)">
<mask id="mask6" mask-type="alpha" maskUnits="userSpaceOnUse" x="58" y="12" width="106" height="60">
<path fill-rule="evenodd" clip-rule="evenodd" d="M59.0738 70.0976C59.3898 71.4567 60.5977 71.214 60.8958 70.0976C60.4743 68.6784 63.8984 43.8444 72.7386 37.2262C76.0348 34.9283 93.6988 32.8725 111.285 32.8849C128.681 32.8973 146.001 34.9531 149.261 37.2262C158.102 43.8444 161.526 68.6784 161.104 70.0976C161.402 71.214 162.61 71.4567 162.926 70.0976C163.581 60.6945 162.926 11.91 111 12.5726C59.0738 13.2352 58.4187 60.6945 59.0738 70.0976Z" fill="white"/>
</mask>
<g mask="url(#mask6)">
<path fill-rule="evenodd" clip-rule="evenodd" d="M59.0738 70.0976C59.3898 71.4567 60.5977 71.214 60.8958 70.0976C60.4743 68.6784 63.8984 43.8444 72.7386 37.2262C76.0348 34.9283 93.6988 32.8725 111.285 32.8849C128.681 32.8973 146.001 34.9531 149.261 37.2262C158.102 43.8444 161.526 68.6784 161.104 70.0976C161.402 71.214 162.61 71.4567 162.926 70.0976C163.581 60.6945 162.926 11.91 111 12.5726C59.0738 13.2352 58.4187 60.6945 59.0738 70.0976Z" fill="#28354B"/>
<path d="M298.663 11.6595H58.1629V267.326H298.663V11.6595Z" fill="#2C1B18"/>
</g>
</g>
</g>
<path d="M169.341 73.1125C169.379 72.5652 168.808 72.0262 168.268 71.9094L167.015 71.6299C158.353 69.5481 127.626 69.6224 120.425 70.9422C118.239 71.2985 116.743 72.8341 116.072 74.1516C115.666 74.9466 115.54 75.6944 115.676 76.2853C113.948 75.9256 112.353 75.7369 110.945 75.7369V75.9633V75.7369C109.667 75.7392 108.293 75.9161 106.675 76.2759C106.799 75.6885 106.668 74.9513 106.27 74.1705C105.599 72.853 104.104 71.3197 101.918 70.9623C94.7161 69.6436 63.9869 69.5681 55.3283 71.6488L54.0745 71.9283C53.5367 72.0474 52.9682 72.5865 53.0035 73.1326H53V73.1361C53 73.1361 53 73.1361 53 73.1373L53.3421 79.8674C53.3421 79.8733 53.3421 79.8804 53.3421 79.8851C53.4093 80.6306 54.0969 80.6754 54.8247 80.7226L54.8388 80.4961L54.8435 80.7226L60.0722 80.6105L60.1607 83.9426H60.3506L60.1736 83.9732C60.2196 84.2374 60.5051 84.3672 60.7752 84.3672C60.8 84.3672 60.8235 84.366 60.846 84.3648C60.8884 84.3613 60.9226 84.3459 60.9615 84.3377C60.9969 84.9392 61.0311 85.5101 61.0594 86.0314C61.464 93.0777 61.4711 93.2122 64.4917 94.3881L65.0721 94.6157C67.7212 95.7811 73.8368 96.3213 80.219 96.3213C88.6205 96.3213 97.4808 95.3848 99.5037 93.7064C99.5048 93.7052 99.5048 93.704 99.5072 93.7028C99.5096 93.7016 99.5107 93.7005 99.5131 93.6993V93.6981C100.605 92.8748 101.227 91.7921 101.377 91.2648C101.894 90.2799 102.935 83.1653 103.372 79.5785C104.454 78.537 109.479 77.5533 111.203 77.7302L111.227 77.5049L111.25 77.7302C113.005 77.5497 117.894 78.5087 118.969 79.5655L118.97 79.5761C119.409 83.1841 120.454 90.3554 120.972 91.2695C121.131 91.8038 121.745 92.8666 122.823 93.6804L122.822 93.6816C124.83 95.3647 133.704 96.3036 142.116 96.3036C148.498 96.3036 154.615 95.7634 157.266 94.5981L157.843 94.3716C160.867 93.1956 160.874 93.0624 161.278 86.0137C161.308 85.4971 161.342 84.9263 161.377 84.32C161.415 84.3294 161.45 84.3448 161.493 84.3471C161.516 84.3495 161.539 84.3507 161.564 84.3507C161.834 84.3507 162.119 84.2197 162.165 83.9555L162.026 83.9237L162.178 83.9225L162.267 80.5928L167.496 80.7049L167.501 80.4784L167.516 80.7049C168.245 80.6565 168.935 80.6117 168.998 79.8686C168.999 79.8627 168.998 79.8556 168.999 79.8497H169L169.343 73.1137H169.341V73.1125ZM61.2552 83.847H61.1621C61.1621 83.8447 61.1621 83.8423 61.1621 83.8411L61.3048 83.8447L61.2552 83.847ZM103.206 76.4599C103.212 76.4882 103.225 76.6392 103.164 77.3539C103.114 77.8894 103.035 78.6077 102.936 79.4428C102.352 84.248 101.346 90.51 100.972 91.0808L101.162 91.2047L100.944 91.1422C100.811 91.6116 100.244 92.5882 99.2347 93.3466L99.3716 93.5271L99.2253 93.3537C95.7541 96.2635 71.3056 96.8709 65.2513 94.1994L65.1593 94.407L65.2431 94.1958L64.6592 93.967C61.9098 92.8972 61.9099 92.8972 61.5147 86.0067C61.477 85.3473 61.4357 84.6267 61.3885 83.8447C61.477 80.1941 61.7907 77.0756 62.2083 75.705L61.9912 75.639L62.2142 75.6779C62.4088 74.5491 63.5894 73.8296 64.3313 73.7624L64.3113 73.5371L64.3254 73.5241L64.4021 73.7341C70.1958 71.6287 93.1533 72.2114 94.2762 72.3423L94.275 72.3588C94.5946 72.3966 94.9379 72.4319 95.2976 72.4685C98.5341 72.8035 102.968 73.2623 103.201 76.4245L103.422 76.408L103.206 76.4599ZM160.829 85.9878C160.434 92.8784 160.434 92.8784 157.682 93.9482L157.1 94.1758L157.184 94.3869L157.092 94.1793C151.037 96.8521 126.588 96.2434 123.117 93.3336L122.971 93.507L123.106 93.3266C122.099 92.5682 121.534 91.5927 121.4 91.1221L121.181 91.1846L121.371 91.0608C120.993 90.4852 119.989 84.2245 119.409 79.4275L119.395 79.3296C119.292 78.4756 119.222 77.8257 119.181 77.3386C119.11 76.5944 119.132 76.454 119.134 76.441L118.918 76.3915L119.139 76.408C119.373 73.2434 123.811 72.787 127.051 72.452C127.407 72.4154 127.748 72.38 128.038 72.3447H128.047L128.03 72.1194C128.032 72.1194 128.035 72.1182 128.038 72.1182L128.035 72.1052L128.053 72.1241L128.083 72.3258C128.896 72.2019 152.047 71.5745 157.939 73.7164L158.016 73.5029L158.027 73.5159H158.03L158.009 73.7412C158.751 73.8084 159.931 74.5279 160.126 75.6578L160.349 75.6189L160.132 75.685C160.548 77.052 160.861 80.1682 160.951 83.8187C160.908 84.609 160.867 85.3285 160.829 85.9878Z" fill="#001C65"/>
<defs>
<linearGradient id="paint0_linear" x1="211.909" y1="236" x2="9.62389" y2="34.1824" gradientUnits="userSpaceOnUse">
<stop offset="0.08125" stop-color="#33B7FF"/>
<stop offset="0.895024" stop-color="#7F23FF"/>
</linearGradient>
</defs>
</svg>
