<svg width="3810" height="2151" viewBox="0 0 3810 2151" fill="none" xmlns="http://www.w3.org/2000/svg">
<path d="M0 1325.17L1033 2151V1670.87L299.903 1075.5L1033 480.134V0L0 845.035V1325.17Z" fill="white"/>
<path d="M3810 845.035L2771 0V480.134L3513.14 1075.5L2771 1670.87V2151L3810 1325.17V845.035Z" fill="white"/>
<path d="M2226 0H1913.5L1601 2151H1913.5L2226 0Z" fill="white"/>
<path d="M3205.44 894.142C3206.28 881.985 3193.6 870.011 3181.6 867.417L3153.77 861.207C2961.35 814.961 2278.77 816.612 2118.81 845.931C2070.23 853.844 2037.01 887.959 2022.1 917.226C2013.09 934.886 2010.28 951.497 2013.3 964.624C1974.91 956.633 1939.49 952.441 1908.2 952.441V957.471V952.441C1879.83 952.493 1849.3 956.423 1813.35 964.415C1816.1 951.366 1813.2 934.99 1804.37 917.645C1789.46 888.378 1756.23 854.316 1707.68 846.377C1547.7 817.084 865.067 815.407 672.722 861.626L644.87 867.836C632.922 870.482 620.293 882.456 621.079 894.588H621V894.666C621 894.666 621 894.666 621 894.692L628.598 1044.2C628.598 1044.33 628.598 1044.49 628.598 1044.59C630.092 1061.15 645.367 1062.15 661.534 1063.19L661.848 1058.16L661.953 1063.19L778.104 1060.71L780.07 1134.72H784.288L780.358 1135.41C781.38 1141.28 787.72 1144.16 793.721 1144.16C794.271 1144.16 794.795 1144.13 795.293 1144.1C796.236 1144.03 796.996 1143.69 797.86 1143.5C798.646 1156.87 799.406 1169.55 800.035 1181.13C809.022 1337.66 809.179 1340.64 876.282 1366.77L889.173 1371.82C948.021 1397.71 1083.88 1409.71 1225.65 1409.71C1412.29 1409.71 1609.11 1388.91 1654.05 1351.62C1654.07 1351.59 1654.07 1351.57 1654.13 1351.54C1654.18 1351.52 1654.21 1351.49 1654.26 1351.46V1351.44C1678.52 1333.15 1692.33 1309.1 1695.66 1297.38C1707.16 1275.51 1730.27 1117.46 1739.99 1037.78C1764.02 1014.64 1875.63 992.791 1913.94 996.721L1914.46 991.717L1914.99 996.721C1953.98 992.712 2062.58 1014.01 2086.45 1037.49L2086.48 1037.73C2096.22 1117.88 2119.44 1277.18 2130.94 1297.49C2134.48 1309.36 2148.13 1332.97 2172.08 1351.04L2172.05 1351.07C2216.65 1388.46 2413.79 1409.32 2600.66 1409.32C2742.43 1409.32 2878.31 1397.32 2937.19 1371.43L2950.03 1366.4C3017.18 1340.28 3017.34 1337.31 3026.33 1180.73C3026.98 1169.26 3027.74 1156.58 3028.53 1143.11C3029.37 1143.32 3030.15 1143.66 3031.1 1143.71C3031.62 1143.76 3032.12 1143.79 3032.67 1143.79C3038.67 1143.79 3045.01 1140.88 3046.03 1135.01L3042.94 1134.31L3046.32 1134.28L3048.28 1060.31L3164.46 1062.8L3164.57 1057.77L3164.91 1062.8C3181.1 1061.73 3196.43 1060.73 3197.82 1044.22C3197.84 1044.09 3197.82 1043.94 3197.84 1043.81H3197.87L3205.49 894.168H3205.44V894.142ZM804.385 1132.6H802.315C802.315 1132.55 802.315 1132.5 802.315 1132.47L805.485 1132.55L804.385 1132.6ZM1736.29 968.502C1736.43 969.131 1736.71 972.485 1735.35 988.363C1734.25 1000.26 1732.5 1016.22 1730.29 1034.77C1717.32 1141.51 1694.97 1280.61 1686.67 1293.3L1690.89 1296.05L1686.04 1294.66C1683.08 1305.09 1670.5 1326.78 1648.07 1343.63L1651.11 1347.64L1647.86 1343.79C1570.75 1408.43 1027.65 1421.92 893.155 1362.57L891.112 1367.18L892.972 1362.49L880.002 1357.41C818.926 1333.65 818.926 1333.65 810.149 1180.58C809.31 1165.93 808.393 1149.92 807.345 1132.55C809.31 1051.46 816.28 982.179 825.555 951.733L820.734 950.266L825.686 951.131C830.01 926.056 856.237 910.073 872.718 908.579L872.273 903.575L872.587 903.287L874.29 907.95C1002.99 861.181 1512.98 874.124 1537.92 877.033L1537.9 877.399C1545 878.238 1552.62 879.024 1560.61 879.836C1632.51 887.277 1731 897.47 1736.19 967.716L1741.09 967.349L1736.29 968.502ZM3016.34 1180.16C3007.57 1333.23 3007.57 1333.23 2946.44 1356.99L2933.52 1362.05L2935.38 1366.74L2933.34 1362.13C2798.82 1421.5 2255.71 1407.98 2178.6 1343.34L2175.35 1347.19L2178.37 1343.18C2155.99 1326.34 2143.44 1304.67 2140.45 1294.21L2135.61 1295.6L2139.82 1292.85C2131.41 1280.06 2109.12 1140.99 2096.22 1034.43L2095.91 1032.25C2093.63 1013.28 2092.09 998.844 2091.17 988.022C2089.6 971.489 2090.07 968.371 2090.12 968.083L2085.33 966.982L2090.22 967.349C2095.44 897.051 2194.01 886.911 2265.98 879.469C2273.9 878.657 2281.47 877.871 2287.92 877.085H2288.12L2287.73 872.081C2287.78 872.081 2287.86 872.054 2287.92 872.054L2287.86 871.766L2288.26 872.185L2288.91 876.666C2306.99 873.915 2821.27 859.975 2952.15 907.557L2953.85 902.815L2954.12 903.103H2954.17L2953.7 908.108C2970.18 909.601 2996.4 925.584 3000.73 950.685L3005.68 949.82L3000.86 951.288C3010.11 981.655 3017.05 1050.88 3019.07 1131.97C3018.1 1149.53 3017.18 1165.51 3016.34 1180.16Z" fill="#7F23FF"/>
</svg>
